<svg xmlns="http://www.w3.org/2000/svg" viewBox="0 0 500 500"><g id="freepik--Canvas--inject-173"><polygon points="238.91 27.96 227.91 24.97 50.07 127.65 105.9 397.78 116.89 400.77 294.74 298.09 238.91 27.96" style="fill:#BA68C8"></polygon><polygon points="238.91 27.96 227.91 24.97 50.07 127.65 105.9 397.78 116.89 400.77 294.74 298.09 238.91 27.96" style="fill:#fff;opacity:0.5"></polygon><polygon points="50.07 127.65 105.9 397.78 116.89 400.77 61.06 130.64 50.07 127.65" style="opacity:0.1"></polygon><polygon points="238.91 27.96 227.91 24.97 50.07 127.65 61.06 130.64 238.91 27.96" style="fill:#fff;opacity:0.30000000000000004"></polygon><path d="M173,221.21a2.89,2.89,0,0,0,1.51.34A2.89,2.89,0,0,1,173,221.21Z" style="fill:none"></path><path d="M184.14,210.72c.44,2.11,1.83,3.33,3.44,3.26-1.61.07-3-1.15-3.44-3.26l-2.92-14.12a2.8,2.8,0,0,0-.79-1.52,2.8,2.8,0,0,1,.79,1.52Z" style="fill:none"></path><path d="M193.89,235.73a42.68,42.68,0,0,1,.53-8.47A42.68,42.68,0,0,0,193.89,235.73Z" style="fill:none"></path><path d="M166.62,206.42a2.08,2.08,0,0,1,.75.13A2.08,2.08,0,0,0,166.62,206.42Z" style="fill:none"></path><path d="M182.12,194.07a4.72,4.72,0,0,1,.54,1.27A4.72,4.72,0,0,0,182.12,194.07Z" style="fill:none"></path><path d="M197.9,210.47a24.69,24.69,0,0,0,.31-4.9A24.69,24.69,0,0,1,197.9,210.47Z" style="fill:none"></path><path d="M190,212.9a4.79,4.79,0,0,1-.79.57,4.84,4.84,0,0,1-.47.21,4.84,4.84,0,0,0,.47-.21A4.79,4.79,0,0,0,190,212.9Z" style="fill:none"></path><path d="M190.17,195.73a4.92,4.92,0,0,0,.09.76l.41,2-.41-2A4.92,4.92,0,0,1,190.17,195.73Z" style="fill:none"></path><path d="M198.2,205.47a21.44,21.44,0,0,0-.41-3.43l-1.45-7,1.45,7A21.44,21.44,0,0,1,198.2,205.47Z" style="fill:none"></path><path d="M195.06,191.47a2.54,2.54,0,0,1,.53.73A2.54,2.54,0,0,0,195.06,191.47Z" style="fill:none"></path><path d="M168.64,204.78l.29.2Z" style="fill:none"></path><path d="M167.36,204.33a3.18,3.18,0,0,1,1.13.36A3.18,3.18,0,0,0,167.36,204.33Z" style="fill:none"></path><path d="M176.65,218.31a4.82,4.82,0,0,0,.87-1.79A4.82,4.82,0,0,1,176.65,218.31Z" style="fill:none"></path><path d="M177.66,193a3.42,3.42,0,0,1,.84-.37A3.42,3.42,0,0,0,177.66,193Z" style="fill:none"></path><path d="M181.49,193.28a4.3,4.3,0,0,1,.48.55A4.3,4.3,0,0,0,181.49,193.28Z" style="fill:none"></path><path d="M180.1,192.52a3,3,0,0,1,1.38.75A3,3,0,0,0,180.1,192.52Z" style="fill:none"></path><path d="M178.91,192.49a2.85,2.85,0,0,1,.41,0A2.85,2.85,0,0,0,178.91,192.49Z" style="fill:none"></path><path d="M193.9,236c.06,1.22.17,2.43.34,3.61C194.07,238.47,194,237.26,193.9,236Z" style="fill:none"></path><path d="M167.73,230.1l7.19,7.6a22.3,22.3,0,0,1,4.37,6.94,22.3,22.3,0,0,0-4.37-6.94Z" style="fill:none"></path><path d="M161.82,212.91c-.63-3,.82-6.66,3.24-8a3.83,3.83,0,0,1,1.79-.55,3.83,3.83,0,0,0-1.79.55c-2.42,1.39-3.87,5-3.24,8l1.82,8.84a18.58,18.58,0,0,0,2.48,6.27,18.58,18.58,0,0,1-2.48-6.27Z" style="fill:none"></path><path d="M175.72,219.12a3.39,3.39,0,0,0,.93-.81,3.39,3.39,0,0,1-.93.81,2.17,2.17,0,0,1-1,.32A2.17,2.17,0,0,0,175.72,219.12Z" style="fill:none"></path><path d="M171,218.29a4.14,4.14,0,0,0,1.93,2.92,4.14,4.14,0,0,1-1.93-2.92l-2-9.56a3.15,3.15,0,0,0-.9-1.73,3.15,3.15,0,0,1,.9,1.73Z" style="fill:none"></path><polygon points="185.98 274.62 177.66 279.42 187.13 273.95 185.98 274.62" style="fill:none"></polygon><path d="M188.84,211.55a4.56,4.56,0,0,0,1.87-4.62,4.56,4.56,0,0,1-1.87,4.62,2.15,2.15,0,0,1-1,.31A2.15,2.15,0,0,0,188.84,211.55Z" style="fill:none"></path><path d="M177.59,214.51l-2.92-14.12a7.59,7.59,0,0,1,2.2-6.86,7.59,7.59,0,0,0-2.2,6.86l2.92,14.12a4.56,4.56,0,0,1-.07,2A4.56,4.56,0,0,0,177.59,214.51Z" style="fill:none"></path><path d="M199.32,201.16a24.61,24.61,0,0,1,.48,5.27,24.61,24.61,0,0,0-.48-5.27l-1.83-8.85a5,5,0,0,0-1.37-2.63,5,5,0,0,1,1.37,2.63Z" style="fill:none"></path><path d="M196.15,241a34.94,34.94,0,0,1-.71-7.66A34.94,34.94,0,0,0,196.15,241Z" style="fill:none"></path><polygon points="187.51 273.73 187.51 273.73 200.41 266.29 199.74 266.67 187.51 273.73" style="fill:none"></polygon><path d="M192,189.32a3.35,3.35,0,0,1,4.13.34,3.35,3.35,0,0,0-4.13-.34c-2.42,1.4-3.87,5-3.24,8.05l2,9.56-2-9.56C188.1,194.33,189.55,190.72,192,189.32Z" style="fill:none"></path><path d="M201.51,316l2.84-1.64a4.41,4.41,0,0,0,1.8-4.48l-7.72,4.46C198.78,316.08,200.16,316.82,201.51,316Z" style="fill:#455a64"></path><path d="M161.48,123c.22,1.06,1.08,1.54,1.93,1.05a2.79,2.79,0,0,0,1.13-2.82L159.12,95c-.22-1.07-1.09-1.54-1.93-1a2.78,2.78,0,0,0-1.13,2.81Z" style="fill:#fff"></path><path d="M137.13,148.15a1.19,1.19,0,0,0,1.53.2,2.22,2.22,0,0,0,.7-.7,2.58,2.58,0,0,0,0-3L124.27,128a1.16,1.16,0,0,0-1.53-.2,2.21,2.21,0,0,0-.71.69,2.6,2.6,0,0,0,0,3Z" style="fill:#fff"></path><path d="M102.67,181.61l20.75,2.71a1.34,1.34,0,0,0,.82-.18,2.61,2.61,0,0,0,1.13-1.73c.23-1.16-.27-2.2-1.11-2.31l-20.75-2.69a1.27,1.27,0,0,0-.82.18,2.55,2.55,0,0,0-1.12,1.72C101.34,180.47,101.83,181.51,102.67,181.61Z" style="fill:#fff"></path><path d="M125.16,219c-.21-1.06-1.07-1.53-1.92-1l-20.83,12a2.76,2.76,0,0,0-1.13,2.81c.22,1.06,1.08,1.54,1.93,1.05l20.83-12A2.75,2.75,0,0,0,125.16,219Z" style="fill:#fff"></path><path d="M137.3,247.32a2.23,2.23,0,0,0-.72.69l-15.32,23.54a2.58,2.58,0,0,0,0,2.95,1.19,1.19,0,0,0,1.53.2,2.22,2.22,0,0,0,.7-.7l15.34-23.54a2.56,2.56,0,0,0,0-2.94A1.15,1.15,0,0,0,137.3,247.32Z" style="fill:#fff"></path><path d="M216.43,130.91a2.05,2.05,0,0,0,.71-.7l15.33-23.53a2.6,2.6,0,0,0,0-3,1.17,1.17,0,0,0-1.53-.19,2.14,2.14,0,0,0-.71.7l-15.33,23.52a2.6,2.6,0,0,0,0,3A1.17,1.17,0,0,0,216.43,130.91Z" style="fill:#fff"></path><path d="M191.06,117.8a1.29,1.29,0,0,0,.82-.18,2.6,2.6,0,0,0,1.12-1.73l5.73-28.73c.23-1.16-.27-2.19-1.11-2.31a1.35,1.35,0,0,0-.82.19,2.52,2.52,0,0,0-1.12,1.73L190,115.5C189.72,116.66,190.22,117.69,191.06,117.8Z" style="fill:#fff"></path><path d="M251.05,196.61,230.3,193.9a1.33,1.33,0,0,0-.81.19,2.52,2.52,0,0,0-1.12,1.73c-.24,1.16.26,2.19,1.1,2.3l20.75,2.7a1.26,1.26,0,0,0,.81-.18,2.55,2.55,0,0,0,1.13-1.72C252.39,197.75,251.9,196.72,251.05,196.61Z" style="fill:#fff"></path><path d="M188.57,309.57c1.07,5.18,5.28,7.45,9.39,5.08l.47-.27,7.72-4.46.47-.27c4.12-2.38,6.59-8.51,5.52-13.69Z" style="fill:#455a64"></path><path d="M188.57,309.57c1.07,5.18,5.28,7.45,9.39,5.08l.47-.27,7.72-4.46.47-.27c4.12-2.38,6.59-8.51,5.52-13.69Z" style="opacity:0.15"></path><path d="M228.56,159.26c.22,1.07,1.09,1.54,1.93,1.05l20.83-12a2.79,2.79,0,0,0,1.13-2.82c-.22-1.06-1.08-1.53-1.93-1l-20.82,12A2.77,2.77,0,0,0,228.56,159.26Z" style="fill:#fff"></path><polygon points="215.78 291.01 214.06 282.69 212.04 283.86 184.18 299.95 182.15 301.12 183.87 309.44 185.9 308.27 185.9 308.27 213.76 292.18 213.76 292.18 213.76 292.18 215.78 291.01" style="fill:#455a64"></polygon><polygon points="185.9 308.27 185.9 308.27 186.42 310.81 188.57 309.57 212.14 295.96 214.29 294.72 213.76 292.18 213.76 292.18 185.9 308.27" style="fill:#455a64"></polygon><polygon points="183.66 297.41 184.18 299.95 212.04 283.86 211.52 281.32 183.66 297.41 183.66 297.41" style="fill:#455a64"></polygon><polygon points="181.41 286.56 181.94 289.09 209.8 273.01 209.27 270.47 181.41 286.56 181.41 286.56" style="fill:#455a64"></polygon><g style="opacity:0.30000000000000004"><polygon points="185.9 308.27 185.9 308.27 186.42 310.81 188.57 309.57 212.14 295.96 214.29 294.72 213.76 292.18 213.76 292.18 185.9 308.27"></polygon><polygon points="183.66 297.41 184.18 299.95 212.04 283.86 211.52 281.32 183.66 297.41 183.66 297.41"></polygon><polygon points="181.41 286.56 181.94 289.09 209.8 273.01 209.27 270.47 181.41 286.56 181.41 286.56"></polygon></g><polygon points="183.66 297.41 211.52 281.32 211.52 281.32 213.54 280.16 211.82 271.84 209.8 273.01 181.94 289.09 179.91 290.26 181.63 298.58 183.66 297.41 183.66 297.41" style="fill:#455a64"></polygon><path d="M187.51,273.73h0L182.39,249A26.68,26.68,0,0,0,176,236l-7.19-7.6a15.28,15.28,0,0,1-3.67-7.49L163.34,212a5.16,5.16,0,0,1,2.12-5.24,2.56,2.56,0,0,1,1.16-.36,2.08,2.08,0,0,1,.75.13,2.12,2.12,0,0,1,.78.45,3.15,3.15,0,0,1,.9,1.73l2,9.56a4.14,4.14,0,0,0,1.93,2.92,2.89,2.89,0,0,0,1.51.34,3.6,3.6,0,0,0,1.65-.5c2.24-1.29,3.57-4.62,3-7.42L176.2,199.5a4.53,4.53,0,0,1,1.86-4.62,1.91,1.91,0,0,1,2.37.2,2.8,2.8,0,0,1,.79,1.52l2.92,14.12c.44,2.11,1.83,3.33,3.44,3.26a3.53,3.53,0,0,0,1.19-.3,4.84,4.84,0,0,0,.47-.21,4.79,4.79,0,0,0,.79-.57,7.57,7.57,0,0,0,2.2-6.85l-1.56-7.59-.41-2a4.92,4.92,0,0,1-.09-.76,5.09,5.09,0,0,1,2.2-4.49,2.19,2.19,0,0,1,2.69.23,2.54,2.54,0,0,1,.53.73,3.51,3.51,0,0,1,.37,1l.38,1.83,1.45,7a21.44,21.44,0,0,1,.41,3.43.38.38,0,0,1,0,.1,24.69,24.69,0,0,1-.31,4.9c-.07.41-.14.83-.23,1.24l-2.85,13.4c-.15.71-.28,1.43-.4,2.15a42.68,42.68,0,0,0-.53,8.47c0,.1,0,.21,0,.31.06,1.22.17,2.43.34,3.61.1.75.23,1.5.38,2.23l5.12,24.79.67-.38.86-.5L196.15,241a34.94,34.94,0,0,1-.71-7.66,40.78,40.78,0,0,1,.9-8l2.85-13.4a28.09,28.09,0,0,0,.61-5.51,24.61,24.61,0,0,0-.48-5.27l-1.83-8.85a5,5,0,0,0-1.37-2.63l0,0a3.35,3.35,0,0,0-4.13-.34c-2.42,1.4-3.87,5-3.24,8.05l2,9.56a4.56,4.56,0,0,1-1.87,4.62,2.15,2.15,0,0,1-1,.31,2,2,0,0,1-1.95-1.42,2.79,2.79,0,0,1-.18-.6l-2.92-14.13c0-.13-.06-.25-.1-.37a4.72,4.72,0,0,0-.54-1.27l-.15-.24a4.3,4.3,0,0,0-.48-.55h0a3,3,0,0,0-1.38-.75,2.63,2.63,0,0,0-.39-.06,2.54,2.54,0,0,0-.39,0,2.85,2.85,0,0,0-.41,0l-.41.1a3.42,3.42,0,0,0-.84.37,4.79,4.79,0,0,0-.79.57,7.59,7.59,0,0,0-2.2,6.86l2.92,14.12a4.56,4.56,0,0,1-.07,2,4.82,4.82,0,0,1-.87,1.79,3.39,3.39,0,0,1-.93.81,2.17,2.17,0,0,1-1,.32,2.21,2.21,0,0,1-2.14-2l-2-9.56a4.77,4.77,0,0,0-1.65-2.87l-.29-.2-.15-.09a3.18,3.18,0,0,0-1.13-.36,2.83,2.83,0,0,0-.51,0,3.83,3.83,0,0,0-1.79.55c-2.42,1.39-3.87,5-3.24,8l1.82,8.84a18.58,18.58,0,0,0,2.48,6.27c.29.44.58.86.9,1.26s.47.56.71.82l7.19,7.6a22.3,22.3,0,0,1,4.37,6.94,29.6,29.6,0,0,1,1.57,5.19L186,274.62l1.15-.67Z" style="fill:#fff"></path><polygon points="201.27 265.79 200.41 266.29 187.51 273.73 187.13 273.95 177.66 279.42 179.38 287.73 181.41 286.56 181.41 286.56 209.27 270.47 209.27 270.47 211.3 269.3 209.58 260.99 201.27 265.79 201.27 265.79" style="fill:#455a64"></polygon><path d="M194.62,241.88c-.15-.73-.28-1.48-.38-2.23-.17-1.18-.28-2.39-.34-3.61,0-.1,0-.21,0-.31a42.68,42.68,0,0,1,.53-8.47c.12-.72.25-1.44.4-2.15l2.85-13.4c.09-.41.16-.83.23-1.24a24.69,24.69,0,0,0,.31-4.9.38.38,0,0,0,0-.1,21.44,21.44,0,0,0-.41-3.43l-1.45-7-.38-1.83a3.51,3.51,0,0,0-.37-1,2.54,2.54,0,0,0-.53-.73,2.19,2.19,0,0,0-2.69-.23,5.09,5.09,0,0,0-2.2,4.49,4.92,4.92,0,0,0,.09.76l.41,2,1.56,7.59a7.57,7.57,0,0,1-2.2,6.85,4.79,4.79,0,0,1-.79.57,4.84,4.84,0,0,1-.47.21,3.53,3.53,0,0,1-1.19.3c-1.61.07-3-1.15-3.44-3.26l-2.92-14.12a2.8,2.8,0,0,0-.79-1.52,1.91,1.91,0,0,0-2.37-.2,4.53,4.53,0,0,0-1.86,4.62l2.91,14.13c.58,2.8-.75,6.13-3,7.42a3.6,3.6,0,0,1-1.65.5,2.89,2.89,0,0,1-1.51-.34,4.14,4.14,0,0,1-1.93-2.92l-2-9.56a3.15,3.15,0,0,0-.9-1.73,2.12,2.12,0,0,0-.78-.45,2.08,2.08,0,0,0-.75-.13,2.56,2.56,0,0,0-1.16.36,5.16,5.16,0,0,0-2.12,5.24l1.83,8.85a15.28,15.28,0,0,0,3.67,7.49L176,236a26.68,26.68,0,0,1,6.36,13l5.12,24.78h0l12.23-7.06Z" style="fill:#BA68C8"></path><path d="M164.68,130.15l-.71.41c-24.55,14.69-39.65,51.51-34,83,3.19,17.79,12.17,30.38,23.79,36.05,6.11,3,10.9,8.9,13.25,17l.14.52c1.81,6.22,5.62,10.68,10.53,12.31l8.31-4.8-5.12-24.79a29.6,29.6,0,0,0-1.57-5.19,22.3,22.3,0,0,0-4.37-6.94l-7.19-7.6c-.24-.26-.48-.54-.71-.82s-.61-.82-.9-1.26a18.58,18.58,0,0,1-2.48-6.27l-1.82-8.84c-.63-3,.82-6.66,3.24-8a3.83,3.83,0,0,1,1.79-.55,2.83,2.83,0,0,1,.51,0,3.18,3.18,0,0,1,1.13.36l.15.09.29.2a4.77,4.77,0,0,1,1.65,2.87l2,9.56a2.21,2.21,0,0,0,2.14,2,2.17,2.17,0,0,0,1-.32,3.39,3.39,0,0,0,.93-.81,4.82,4.82,0,0,0,.87-1.79,4.56,4.56,0,0,0,.07-2l-2.92-14.12a7.59,7.59,0,0,1,2.2-6.86,4.79,4.79,0,0,1,.79-.57,3.42,3.42,0,0,1,.84-.37l.41-.1a2.85,2.85,0,0,1,.41,0,2.54,2.54,0,0,1,.39,0,2.63,2.63,0,0,1,.39.06,3,3,0,0,1,1.38.75h0a4.3,4.3,0,0,1,.48.55l.15.24a4.72,4.72,0,0,1,.54,1.27c0,.12.07.24.1.37l2.92,14.13a2.79,2.79,0,0,0,.18.6,2,2,0,0,0,1.95,1.42,2.15,2.15,0,0,0,1-.31,4.56,4.56,0,0,0,1.87-4.62l-2-9.56c-.63-3,.82-6.65,3.24-8.05a3.35,3.35,0,0,1,4.13.34l0,0a5,5,0,0,1,1.37,2.63l1.83,8.85a24.61,24.61,0,0,1,.48,5.27,28.09,28.09,0,0,1-.61,5.51l-2.85,13.4a40.78,40.78,0,0,0-.9,8,34.94,34.94,0,0,0,.71,7.66l5.12,24.79h0l8.31-4.8a35.77,35.77,0,0,0,3.73-20.53l-.07-.57a51.17,51.17,0,0,1,3.93-26.55c7-16,9.54-34.56,6-51.53C216.53,129.52,190.32,115.34,164.68,130.15Z" style="fill:#BA68C8"></path></g><g id="freepik--character-2--inject-173"><path d="M319.8,377.83a41.33,41.33,0,0,0,5,2.93l-5.4,6.6a29.66,29.66,0,0,0-4.59-2.15C315.31,380.24,319.8,377.83,319.8,377.83Z" style="fill:#9c5857"></path><path d="M326.7,394.75c0-6.61,4.55-9.89,6.63-8.82l-1.16-1.11a6.14,6.14,0,0,0-4,1.76,10,10,0,0,0-2.63,5.67,44.79,44.79,0,0,0-.28,6.35c0,2.12,0,4.69-.72,6.67a12.72,12.72,0,0,1-10.34-2.76,5.64,5.64,0,0,0-.08,1.64,11.94,11.94,0,0,0,10.9,2.53C327.5,404.47,326.7,400.37,326.7,394.75Z" style="fill:#f5f5f5"></path><path d="M333.33,385.93c-2.08-1.07-6.63,2.21-6.63,8.82,0,5.62.8,9.72-1.7,11.93l.21-.05a36.45,36.45,0,0,0,6.39-3.29,2.81,2.81,0,0,0,1.46-2.68,22.18,22.18,0,0,1,.38-6.42c.32-1.44.92-2.81,1.12-4.27A4.39,4.39,0,0,0,333.33,385.93Z" style="fill:#455a64"></path><path d="M333.33,385.93c-2.08-1.07-6.63,2.21-6.63,8.82,0,5.62.8,9.72-1.7,11.93l.21-.05a36.45,36.45,0,0,0,6.39-3.29,2.81,2.81,0,0,0,1.46-2.68,22.18,22.18,0,0,1,.38-6.42c.32-1.44.92-2.81,1.12-4.27A4.39,4.39,0,0,0,333.33,385.93Z" style="opacity:0.30000000000000004"></path><path d="M333.33,385.93c-2.08-1.07-6.63,2.21-6.63,8.82,0,5.62.8,9.72-1.7,11.93l.21-.05a36.45,36.45,0,0,0,6.39-3.29,2.81,2.81,0,0,0,1.46-2.68,22.18,22.18,0,0,1,.38-6.42c.32-1.44.92-2.81,1.12-4.27A4.39,4.39,0,0,0,333.33,385.93Z" style="fill:#fff;opacity:0.2"></path><path d="M325,380.14c-3.67.91-5.25,3.93-6.57,7.27,1.36.75,2.61,1.19,3.1,2.65l-.08,1.17a3.71,3.71,0,0,0,.24.49,6.3,6.3,0,0,1,.37.53,1,1,0,0,1,.13.62.52.52,0,0,1-.4.45.55.55,0,0,1-.48-.21l-.08,1a3.81,3.81,0,0,0,.29.57,6.18,6.18,0,0,1,.36.53,1,1,0,0,1,.14.61.54.54,0,0,1-.4.46.61.61,0,0,1-.53-.25l-.13,1.88c-2.34,1.72-2.9,4.66-3,6.75a12,12,0,0,0,6.53.59c.76-2,.69-4.55.72-6.67a44.79,44.79,0,0,1,.28-6.35,10,10,0,0,1,2.63-5.67,6.14,6.14,0,0,1,4-1.76A32.16,32.16,0,0,0,325,380.14Z" style="fill:#37474f"></path><path d="M322.19,392.87a1,1,0,0,0-.13-.62,6.3,6.3,0,0,0-.37-.53,3.71,3.71,0,0,1-.24-.49l-.14,1.88a.55.55,0,0,0,.48.21A.52.52,0,0,0,322.19,392.87Z" style="fill:#fff"></path><path d="M322,395.84a1,1,0,0,0-.14-.61,6.18,6.18,0,0,0-.36-.53,3.81,3.81,0,0,1-.29-.57l-.14,1.92a.61.61,0,0,0,.53.25A.54.54,0,0,0,322,395.84Z" style="fill:#fff"></path><path d="M321,397.93a5.81,5.81,0,0,0-5,1.4,5.69,5.69,0,0,0-1.77,3.18,13,13,0,0,0,3.81,2.17C318.06,402.59,318.62,399.65,321,397.93Z" style="fill:#fff"></path><path d="M256,393.64c-.57,1.21-2.39,2.32-4.39,2.65a20.39,20.39,0,0,1-6-.38,39.18,39.18,0,0,0-9-.23,49.85,49.85,0,0,1-5.59.4,8.9,8.9,0,0,1-5.26-1.67,5.32,5.32,0,0,1-2-3.35,5.08,5.08,0,0,0,2,4.52,8.9,8.9,0,0,0,5.26,1.67,49.85,49.85,0,0,0,5.59-.4,39.18,39.18,0,0,1,9,.23c2,.27,4.17.85,6.17.52s3.81-1.44,4.38-2.65Z" style="fill:#f5f5f5"></path><path d="M234.15,390.09c1.68,0,1.07-2.49,2.66-4.15-.65,0-1.3.05-1.95.05C233.42,388.05,233,390.09,234.15,390.09Z" style="fill:#fff"></path><path d="M237.64,390c1.69,0,1.24-3,2.9-4.69a9.4,9.4,0,0,1-1.15.33c-.33.08-.66.13-1,.18C236.92,387.87,236.49,390,237.64,390Z" style="fill:#fff"></path><path d="M254.24,384.28a2.29,2.29,0,0,0-.87-1.36l-9.07-.23a7.7,7.7,0,0,1-3.76,2.58c-1.66,1.73-1.21,4.69-2.9,4.69-1.15,0-.72-2.09.75-4.18-.52.08-1,.13-1.58.16-1.59,1.66-1,4.15-2.66,4.15-1.13,0-.73-2,.71-4.1h-1.27c-.39,0-.77,0-1.16-.07-3.33,2.64-3.62,5.5-3.19,10a11.43,11.43,0,0,0,1.74.19,49.85,49.85,0,0,0,5.59-.4,39.18,39.18,0,0,1,9,.23,20.39,20.39,0,0,0,6,.38c2-.33,3.82-1.44,4.39-2.65Z" style="fill:#455a64"></path><path d="M232.43,385.91a14.34,14.34,0,0,0-4.53,0,5.4,5.4,0,0,0-4.08,3.55,3.93,3.93,0,0,0-.07,1.6,5.32,5.32,0,0,0,2,3.35,7.72,7.72,0,0,0,3.52,1.48C228.81,391.41,229.1,388.55,232.43,385.91Z" style="fill:#fff"></path><path d="M244,380.11v4.37a1.8,1.8,0,0,0,1.8,1.79h4.57a2.94,2.94,0,0,0,2.94-2.85l.11-3.31Z" style="fill:#9c5857"></path><path d="M278,306.91a55.33,55.33,0,0,0-.58,6.12l-26.87,7.54a18.41,18.41,0,0,0-13.14,21c2.58,14.52,5.87,34.2,5.66,39.45,3.94,3,11.1,0,11.1,0,.65-16.26,3.93-25.65,2-38.91l29.07-5.83-5.8,21a13.77,13.77,0,0,0,7.73,16.27l28.39,12.45a7.91,7.91,0,0,1,5.47-7.55c-9.11-8.2-12.76-14.83-22.39-17.18,0,0,9.24-20.3,15.23-30.58s2.95-20.45-1.13-27.66Z" style="fill:#BA68C8"></path><path d="M278,306.91a55.33,55.33,0,0,0-.58,6.12l-26.87,7.54a18.41,18.41,0,0,0-13.14,21c2.58,14.52,5.87,34.2,5.66,39.45,3.94,3,11.1,0,11.1,0,.65-16.26,3.93-25.65,2-38.91l29.07-5.83-5.8,21a13.77,13.77,0,0,0,7.73,16.27l28.39,12.45a7.91,7.91,0,0,1,5.47-7.55c-9.11-8.2-12.76-14.83-22.39-17.18,0,0,9.24-20.3,15.23-30.58s2.95-20.45-1.13-27.66Z" style="opacity:0.30000000000000004"></path><path d="M312.78,303a4.86,4.86,0,0,1-.51-1.84l-.28-4.58-32.68,2.1c-.43,2.29-.87,5.1-1.3,8.27A48.57,48.57,0,0,0,312.78,303Z" style="fill:#9c5857"></path><path d="M291.61,260.62l-8.74,1.72c-1.93,3.53-3.9,6.86-5.83,10.39-1.46,2.67-3,5.5-2.85,8.53a8.68,8.68,0,0,0,5.24,7.53l-1,11.94c13.73,4.2,30.51.51,34.2-2.67,1.09-5,2.05-10.32,3.13-15.32a52.31,52.31,0,0,0,1.48-9.86,17.36,17.36,0,0,0-2.31-9.56l-.05-.08a10.7,10.7,0,0,0-10.73-4.61Z" style="fill:#BA68C8"></path><path d="M291.61,260.62l-8.74,1.72c-1.93,3.53-3.9,6.86-5.83,10.39-1.46,2.67-3,5.5-2.85,8.53a8.68,8.68,0,0,0,5.24,7.53l-1,11.94c13.73,4.2,30.51.51,34.2-2.67,1.09-5,2.05-10.32,3.13-15.32a52.31,52.31,0,0,0,1.48-9.86,17.36,17.36,0,0,0-2.31-9.56l-.05-.08a10.7,10.7,0,0,0-10.73-4.61Z" style="fill:#fff;opacity:0.2"></path><polygon points="279.58 239.66 276.88 244.36 279.84 245.45 279.58 239.66" style="fill:#783130"></polygon><path d="M279.28,237.57c.43-4.11,1.64-8,4.32-10a22.23,22.23,0,0,0,3.08,14.73,6.45,6.45,0,0,1,2-3.53,3.42,3.42,0,0,1,5.76,1.28,5,5,0,0,1-6.25,6.6,9.62,9.62,0,0,0,7.38,7.48,12.38,12.38,0,0,0,7.16-.68l1.12,5.55c-4.52,4.82-12.24,1.58-12.24,1.58l-1-5.46c-8.89.53-9.71.38-10.69-4.52A47.71,47.71,0,0,1,279.28,237.57Z" style="fill:#9c5857"></path><path d="M291.5,220.33c-4.21-1.5-9.2.77-11.49,4.6s-2.18,8.8-.45,12.92a14.9,14.9,0,0,1,4-10.24c-.84,6.3-.11,10.89,3.08,14.73a4.59,4.59,0,0,1,1.08,2.94c0,1.06-.25,2.11-.18,3.16.16,2.22,1.65,4.08,3.06,5.8s2.87,3.64,2.91,5.86c.08,3.68-1.05,7.58-1.26,11.26a17,17,0,0,0,2.49,10.55,13.94,13.94,0,0,0,13.86,5.55,16.2,16.2,0,0,0,11.62-9.73,19.36,19.36,0,0,0-.58-15.34c-1.87-4-4.94-7.33-6.74-11.36-2-4.46-2.29-9.45-2.87-14.3s-1.57-9.88-4.63-13.69S295.73,217.91,291.5,220.33Z" style="fill:#263238"></path><path d="M199.16,239.18a4.45,4.45,0,0,0-4.93-.6,5,5,0,0,0-2.6,4.31,4.3,4.3,0,0,0,1.24,3.18,3.2,3.2,0,0,0,3.24.77,1.89,1.89,0,0,1-1.48-1.06,1.67,1.67,0,0,1,.24-1.69c.71-.85,2-.76,3-1.21C199.23,242.29,200.22,240.16,199.16,239.18Z" style="fill:#37474f"></path><path d="M199.06,241a1.25,1.25,0,0,1-.61-2.43L215,234l.83,3.3Z" style="fill:#e0e0e0"></path><path d="M265.51,223h0a.78.78,0,0,0-.93-.57l-50.81,11.4a2.17,2.17,0,0,0-1.62,2.63h0a2.15,2.15,0,0,0,2.67,1.54L265,223.94A.78.78,0,0,0,265.51,223Z" style="fill:#455a64"></path><path d="M192.08,243.44a.62.62,0,0,0,.69,0c.27-.25.21-.75.51-1a.81.81,0,0,1,.83.08,1.19,1.19,0,0,0,.81.26c.32-.06.51-.39.73-.62a1.23,1.23,0,0,1,1.13-.42.8.8,0,0,1,.61.94.81.81,0,0,1-.41.48,3.71,3.71,0,0,0-2.11.92,1.67,1.67,0,0,0-.24,1.69,1.89,1.89,0,0,0,1.48,1.06,3.2,3.2,0,0,1-3.24-.77,4.32,4.32,0,0,1-1.24-3.12A1.25,1.25,0,0,0,192.08,243.44Z" style="fill:#BA68C8"></path><path d="M281.3,261.56c-5.07.36-11.45.89-17.74.77a71.32,71.32,0,0,1-13.55-1.5S239.4,247,236.29,241.56l-1.11-9.2a2.27,2.27,0,0,0-1.34-1.8l-4.74-2.06a2.27,2.27,0,0,0-1.77,0l-2.77,1.15a1.22,1.22,0,0,0-.51,1.84,1.2,1.2,0,0,0,1.32.44l1.37-.4-3.22,2.39a2.54,2.54,0,0,0-1,2v1.64a2.52,2.52,0,0,0,1.13,2.11l.39.26a1.29,1.29,0,0,0,1.86-.45c.51,3,3.51,5.49,4.38,6.17l7.68,19.87a14,14,0,0,0,10.65,8.75l12.31,2.15,16.28,2.84a10.89,10.89,0,0,0,12.17-7.81l0-.17A7.8,7.8,0,0,0,281.3,261.56Z" style="fill:#9c5857"></path><path d="M226.74,231.52l.86-.57a1.36,1.36,0,0,1,1-.2l3.92.77-3.67-1.26a1.38,1.38,0,0,0-1.56.48Z" style="fill:#783130"></path><path d="M225.88,239.51c-.36-1.29-.57-3,0-3.65l-1.6.88.18,1.64Z" style="fill:#783130"></path><path d="M307.62,326.33c-4.61,6-13.1,8.33-22.34,9.91l-1.11,4C287.18,339.61,301.36,336.07,307.62,326.33Z" style="opacity:0.30000000000000004"></path><path d="M192.08,243.44a.62.62,0,0,0,.69,0c.27-.25.21-.75.51-1a.81.81,0,0,1,.83.08,1.19,1.19,0,0,0,.81.26c.32-.06.51-.39.73-.62a1.23,1.23,0,0,1,1.13-.42.8.8,0,0,1,.61.94.81.81,0,0,1-.41.48,3.71,3.71,0,0,0-2.11.92,1.67,1.67,0,0,0-.24,1.69,1.89,1.89,0,0,0,1.48,1.06,3.2,3.2,0,0,1-3.24-.77,4.32,4.32,0,0,1-1.24-3.12A1.25,1.25,0,0,0,192.08,243.44Z" style="opacity:0.1"></path></g><g id="freepik--character-3--inject-173"><path d="M248,178.79a14.44,14.44,0,0,0-16.1-1.13,16.26,16.26,0,0,0-7.72,14.44,14.14,14.14,0,0,0,4.54,10.13,10.45,10.45,0,0,0,10.66,1.94,6.07,6.07,0,0,1-5-3.21,5.36,5.36,0,0,1,.51-5.52c2.16-2.87,6.44-2.79,9.64-4.42C248.74,188.88,251.62,181.8,248,178.79Z" style="fill:#455a64"></path><path d="M248,184.84a4.07,4.07,0,0,1-2.39-7.78l53-17.85,3.26,10.58Z" style="fill:#e0e0e0"></path><path d="M460.81,115.08h0a2.55,2.55,0,0,0-3.12-1.71L294.55,158.94a7,7,0,0,0-4.81,8.79h0a7,7,0,0,0,8.92,4.57l160.53-54.05A2.55,2.55,0,0,0,460.81,115.08Z" style="fill:#455a64"></path><path d="M460.81,115.08a2.34,2.34,0,0,0-.37-.72,2.53,2.53,0,0,1-1.75,2.29L297.54,168.8a7,7,0,0,1-8.1-3,7.38,7.38,0,0,0,.3,1.91,7,7,0,0,0,8.92,4.57l160.53-54.05A2.55,2.55,0,0,0,460.81,115.08Z" style="opacity:0.30000000000000004"></path><path d="M225.71,193.81a2,2,0,0,0,2.24-.23c.86-.84.57-2.46,1.51-3.2a2.66,2.66,0,0,1,2.7.14,4,4,0,0,0,2.69.7c1-.26,1.57-1.34,2.25-2.15a4,4,0,0,1,3.6-1.53,2.62,2.62,0,0,1,2.16,3,2.79,2.79,0,0,1-1.27,1.62c-2.53.74-5.15,1.29-6.69,3.33a5.36,5.36,0,0,0-.51,5.52,6.07,6.07,0,0,0,5,3.21,10.45,10.45,0,0,1-10.66-1.94,14.12,14.12,0,0,1-4.52-9.94A4,4,0,0,0,225.71,193.81Z" style="fill:#BA68C8"></path><path d="M225.71,193.81a2,2,0,0,0,2.24-.23c.86-.84.57-2.46,1.51-3.2a2.66,2.66,0,0,1,2.7.14,4,4,0,0,0,2.69.7c1-.26,1.57-1.34,2.25-2.15a4,4,0,0,1,3.6-1.53,2.62,2.62,0,0,1,2.16,3,2.79,2.79,0,0,1-1.27,1.62c-2.53.74-5.15,1.29-6.69,3.33a5.36,5.36,0,0,0-.51,5.52,6.07,6.07,0,0,0,5,3.21,10.45,10.45,0,0,1-10.66-1.94,14.12,14.12,0,0,1-4.52-9.94A4,4,0,0,0,225.71,193.81Z" style="opacity:0.1"></path><path d="M395.05,290.26a14.6,14.6,0,0,0,9.78-7.39C396.41,278.91,395.05,290.26,395.05,290.26Z" style="fill:#37474f"></path><path d="M396.54,287.28l4.34,6.85,6.66-4.63-3.15-7.16C399.32,282.34,396.54,287.28,396.54,287.28Z" style="fill:#ffa8a7"></path><path d="M406.87,302.12c0-5.86,4-8.76,5.88-7.81l-1-1a5.45,5.45,0,0,0-3.56,1.56,8.88,8.88,0,0,0-2.33,5,40.59,40.59,0,0,0-.25,5.62,18.23,18.23,0,0,1-.63,5.91,11.2,11.2,0,0,1-9.16-2.44,4.72,4.72,0,0,0-.07,1.45,10.59,10.59,0,0,0,9.65,2.25C407.58,310.72,406.87,307.1,406.87,302.12Z" style="fill:#263238"></path><path d="M404.94,311.43a18.23,18.23,0,0,0,.63-5.91,40.59,40.59,0,0,1,.25-5.62,8.88,8.88,0,0,1,2.33-5,5.45,5.45,0,0,1,3.56-1.56,57.15,57.15,0,0,1-3.93-4.15,8.24,8.24,0,0,0-7.43,5.08,13.69,13.69,0,0,1,1.94,3.71l-.51,7a5.06,5.06,0,0,0-4.43,1.24,5,5,0,0,0-1.57,2.81A11.2,11.2,0,0,0,404.94,311.43Z" style="fill:#37474f"></path><path d="M412.75,294.31c-1.85-.95-5.88,1.95-5.88,7.81,0,5,.71,8.6-1.51,10.57l.19-.05a32.22,32.22,0,0,0,5.66-2.91,2.52,2.52,0,0,0,1.3-2.38,19.23,19.23,0,0,1,.33-5.68c.28-1.28.81-2.49,1-3.78A3.89,3.89,0,0,0,412.75,294.31Z" style="fill:#37474f"></path><path d="M412.75,294.31c-1.85-.95-5.88,1.95-5.88,7.81,0,5,.71,8.6-1.51,10.57l.19-.05a32.22,32.22,0,0,0,5.66-2.91,2.52,2.52,0,0,0,1.3-2.38,19.23,19.23,0,0,1,.33-5.68c.28-1.28.81-2.49,1-3.78A3.89,3.89,0,0,0,412.75,294.31Z" style="fill:#fff;opacity:0.1"></path><path d="M358,314.62c-.56,1.77-2.5,2.78-4.36,2.93a21.57,21.57,0,0,1-5.51-.7c-4.1-.75-8.05,0-12.14-.11a17.18,17.18,0,0,1-4-.43,6.61,6.61,0,0,1-3.42-2,4.51,4.51,0,0,1-1-2.14,4.22,4.22,0,0,0,1,3.34,6.61,6.61,0,0,0,3.42,2,17.18,17.18,0,0,0,4,.43c4.09.1,8-.64,12.14.11a21.57,21.57,0,0,0,5.51.7c1.86-.15,3.8-1.16,4.36-2.93a4.63,4.63,0,0,0,.15-1.89A3.41,3.41,0,0,1,358,314.62Z" style="fill:#263238"></path><path d="M357.91,311.22c-.25-1.24-.5-2.48-.76-3.72a5.46,5.46,0,0,0-.63-1.9,1.89,1.89,0,0,0-1.65-1c-2.25-.29-5.4-1.11-7.27.18a16.68,16.68,0,0,1-10,2.91,34.41,34.41,0,0,0-5.55-.22c-1.84.22-3.76,1.25-4.3,3a3.56,3.56,0,0,0-.1,1.62,4.51,4.51,0,0,0,1,2.14,6.61,6.61,0,0,0,3.42,2,17.18,17.18,0,0,0,4,.43c4.09.1,8-.64,12.14.11a21.57,21.57,0,0,0,5.51.7c1.86-.15,3.8-1.16,4.36-2.93a3.41,3.41,0,0,0,.15-.69A8.91,8.91,0,0,0,357.91,311.22Z" style="fill:#37474f"></path><path d="M347,299.59l-.08,6.19a1.91,1.91,0,0,0,1.78,2,30.64,30.64,0,0,0,4.89-.05,2.76,2.76,0,0,0,2.5-2.59l.11-4.92Z" style="fill:#ffa8a7"></path><path d="M358.19,301.32a14.22,14.22,0,0,1-7.24,1.17c-1.9-.29-4.45-.86-5.74-2.28.4-18.07-.11-41.84-.28-48.69a36,36,0,0,1,.12-3.89L349,202.48,387,199.05c3.13,9.16,3,47,2.74,50.15,9.49,9.11,10.89,22.52,15.05,33.67-4.25-.29-9.78,7.39-9.78,7.39L375,255.86a15.29,15.29,0,0,1-1.84-5.07c-1.11-6.47-3.84-22.56-4.11-26-3.13,14.59-8.16,30.28-8.16,30.28C364.4,270,359.1,288.47,358.19,301.32Z" style="fill:#455a64"></path><path d="M380.54,210.65a20.32,20.32,0,0,1-9.68,2.82s-.56,5.24-1.86,11.31c.11,1.43.65,5,1.31,9.21.43-5.15,1.25-13,2.68-18.23C373,215.76,378.26,214.2,380.54,210.65Z" style="opacity:0.30000000000000004"></path><path d="M349,165.24v37.24c21.93,9.19,36.14.89,38.06-3.43-1-15.16,2.19-32.86,3.06-40.35.91-7.87,3.62-17-13.64-14.39L364,145.52l-6.3,1.53Z" style="fill:#BA68C8"></path><path d="M356.66,116.54c-2.66-1-5.26-4.83-2.6-6.51.74-.56,2.91.09,4.66,0-1.53-1.38-1.9-3-1.14-3.56s2.82,1.44,6.54,1.08,16.54-4.51,18.15,4.86a2.46,2.46,0,0,1,3.76-.64l-2.66,1.88c3.95,5.56,2.66,12-6.91,24.7a7,7,0,0,1-9.35,1.35L363.16,130l-3.86-4.68Z" style="fill:#263238"></path><polygon points="355.78 124.33 353.2 128.8 356.02 129.84 355.78 124.33" style="fill:#f28f8f"></polygon><path d="M356.66,116.54a41.79,41.79,0,0,0-.74,19,6.42,6.42,0,0,0,1.19,3,4.69,4.69,0,0,0,3.26,1.5,13.77,13.77,0,0,0,3.67-.35v5.82c4.42,1,9,1.45,12.42-1.21v-6a15.78,15.78,0,0,1-7.71.49c-3.05-1.65-3.66-7.22-3.23-8.69a2.27,2.27,0,0,0,2.38.83,3.17,3.17,0,0,0,2-1.57,6.43,6.43,0,0,0,.74-2.48,4.53,4.53,0,0,0-.45-3.06,3.21,3.21,0,0,0-3.46-1.17,5,5,0,0,0-2.91,2.43,7.54,7.54,0,0,0-.51,1.12.69.69,0,0,1-1.34-.17,9.18,9.18,0,0,1,.88-4.87,3.36,3.36,0,0,1-2.49-1.53,3.17,3.17,0,0,1-.49-2.79A9.6,9.6,0,0,1,356.66,116.54Z" style="fill:#ffa8a7"></path><path d="M336.16,169.56l-4.55,9.05c-2.86-1.24-12.33-2.27-17.58-5.59-2.33-4.52-3.93-5.62-4.67-6.93a15.86,15.86,0,0,1-1.08-2.5,1.14,1.14,0,0,0-1.29-.74h0a1.13,1.13,0,0,0-.94,1.11,15,15,0,0,0,1.1,4.43,19.94,19.94,0,0,1-5.86-6.1,2.29,2.29,0,0,0-3.29-.58l-.56.43a4.17,4.17,0,0,0-1.66,3.49l.07,1.88a6.49,6.49,0,0,0,2.12,4.55l1.31,1.18a26.36,26.36,0,0,0,4.8,3.46l4,2.23c9.28,6.73,17.08,10.36,24.11,11.68a5.37,5.37,0,0,0,4.9-1.54A79.45,79.45,0,0,0,346,177.5Z" style="fill:#ffa8a7"></path><path d="M329.43,182.18a15.39,15.39,0,0,1,2.18-3.57,15,15,0,0,0-2.11-.66A5.83,5.83,0,0,0,329.43,182.18Z" style="opacity:0.2"></path><path d="M357.74,147.05c-10.26.78-15.41,5.7-23.11,23.87a15,15,0,0,0,12.59,8c4.92-8,10.67-14.83,13.41-21.21S357.74,147.05,357.74,147.05Z" style="fill:#BA68C8"></path></g></svg>