<svg xmlns="http://www.w3.org/2000/svg" viewBox="0 0 500 500"><g id="freepik--Character--inject-18"><path d="M210.32,293.43a1.06,1.06,0,0,1-1,1l-4.33-.17c-2.79-10.45-6.1-18.87-5.34-15.64a51.83,51.83,0,0,1,1.08,15.45l-8.54-.48c-1.47-18-4.37-31.6-4.53-27.52-.66,16.43-2.18,21.57-3.9,27.05-20.61-1.22-47.61-3.1-67.1-4.89-1.21-10-2.06-20.79-2.48-20.09-3.24,5.25-4.81,13.18-5.52,19.34-6.2-.61-11.14-1.21-14.14-1.73,0,0-.58-8.37-.5-11.1a56.89,56.89,0,0,1,4.35-20.35c2.79-6.63,7-12.31,11-18.15a.73.73,0,0,1,.09-.13s0,0,0-.05a58,58,0,0,0,6.52-12.2.19.19,0,0,0,0-.09,57.24,57.24,0,0,0,2.64-9.62c2.18-12,10.08-21.69,21.76-23.69,21.26-13.89,44.12-7.16,49,9,.47,1.58.89,3.37,1.28,5.32v.06c1.45,7.2,2.46,16.46,3.53,23.65,0,0,0,0,0,0s0,0,0,.08v0a65.89,65.89,0,0,0,1.69,8.35C200.1,250.05,211.71,258.5,210.32,293.43Z" style="fill:#263238"></path><path d="M135.24,193.19c-7.86,3.09-13,8.28-15.11,17-1.22,5.06-2.09,10-4.57,14.68s-6.22,8.55-10,12.29c-6,6-10.3,12.06-12,20.62s-2.43,19.09-.34,27.59a0,0,0,0,0,.08,0c-1.53-8.56-.37-20.06,2-28.61,2.64-9.38,8.69-14.83,15-21.51a40,40,0,0,0,10.2-18.65c1-4.29,1.43-8.83,3.62-12.75,2.61-4.67,7.11-7.35,11.54-9.68A.52.52,0,0,0,135.24,193.19Z" style="fill:#263238"></path><path d="M207.07,251.7c-4.53-7.39-9.38-13.8-11.56-22.61-2-8-2.72-16.38-4.75-24.4a.1.1,0,1,0-.2,0c2.95,14.18,2.33,28.11,10,40.58,4.15,6.78,8.35,13.09,10.73,20.94a67.47,67.47,0,0,1,2.36,25.34c0,.3.36.33.42,0A55.75,55.75,0,0,0,207.07,251.7Z" style="fill:#263238"></path><path d="M262.2,231.29l-27.79,52.33c-1,1.49-.51,3,1.1,3.42l28.79,7.09a4.82,4.82,0,0,0,4.73-2l27.79-52.33c1-1.49.5-3-1.1-3.42l-28.79-7.08A4.8,4.8,0,0,0,262.2,231.29Z" style="fill:#37474f"></path><path d="M265.62,232.1l-27.79,52.33c-1,1.49-.5,3,1.11,3.42l28.79,7.09a4.79,4.79,0,0,0,4.72-2l27.79-52.34c1-1.49.51-3-1.1-3.42l-28.79-7.08A4.8,4.8,0,0,0,265.62,232.1Z" style="fill:#455a64"></path><path d="M272.89,236.59a2.52,2.52,0,1,1-1.78-3.09A2.52,2.52,0,0,1,272.89,236.59Z" style="fill:#263238"></path><path d="M144.58,303.54c12,37.61,43.32,88.51,58.74,90.74,7.34,1.06,20.24,4.54,31-2.64,23.47-15.68,46.87-47,54.13-65.25,2.72-6.83-32.88-30.24-38.8-25.07-13.87,12.1-31.44,37.13-33.55,36.69-7.83-1.64-35.39-31.45-54.6-52.42C138.17,260.13,139.8,288.55,144.58,303.54Z" style="fill:#ad6359"></path><path d="M297,293.44c0-15.16-2.3-19.06,4.52-31.85,4.48-8.39,1-14.85-7.14-9.29-13.38,9.1-17.52,28.65-17,35.85Z" style="fill:#ad6359"></path><path d="M283.66,335.17s11.43-18.23,13.06-34.39c1.12-11.17.86-35.76-26.15-55.6-6.41-4.71-18.88-6.87-11.21,4.62,5.45,8.16,11.38,11.69,13.68,17,0,0-16.18-.86-20.65,5.74A147.65,147.65,0,0,0,242,290.64a30.72,30.72,0,0,0,3.21,2.25s-4,6.32-1.37,17.39Z" style="fill:#ad6359"></path><path d="M296.09,290c-3.41-4.8-10.8-14.86-19.7-21-9.9-6.8-30.79-17.23-35.73-9.87-3.62,5.39,4,10.07,4,10.07s-9.54-2.49-11.75,3.1c-2,5.09,4.1,8.36,4.1,8.36s-6-.52-7,4.76c-1.2,6.35,11.68,6.39,16,13.87C247,300.94,296.09,290,296.09,290Z" style="fill:#ad6359"></path><path d="M271,280.62c-3.95-4-15.23-10.75-26.07-11.56-.24,0-.39.16-.17.22a117.85,117.85,0,0,1,26.17,11.44C270.94,280.75,271,280.67,271,280.62Z" style="fill:#263238"></path><path d="M263.79,290.41c-3.76-3.09-15.69-9.54-26.7-10-.25,0-.38.18-.16.23a126,126,0,0,1,26.8,9.86C263.79,290.54,263.84,290.45,263.79,290.41Z" style="fill:#263238"></path><path d="M161.43,351.6,192,313.32s-24.33-26.84-39.88-38c-8.71-6.23-13.67.45-12.44,10.05C144,319,161.43,351.6,161.43,351.6Z" style="fill:#7E57C2"></path><path d="M161.43,351.6,192,313.32s-24.33-26.84-39.88-38c-8.71-6.23-13.67.45-12.44,10.05C144,319,161.43,351.6,161.43,351.6Z" style="fill:#7E57C2"></path><path d="M182.27,304.72a2.69,2.69,0,1,0,0,5.37,2.69,2.69,0,0,0,0-5.37Zm0,4.91a2.22,2.22,0,1,1,2.21-2.21A2.22,2.22,0,0,1,182.27,309.63ZM157.56,313a2.68,2.68,0,1,0,2.68,2.68A2.68,2.68,0,0,0,157.56,313Zm0,4.89a2.22,2.22,0,1,1,2.22-2.21A2.21,2.21,0,0,1,157.56,317.86Zm1.95-26.32a2.69,2.69,0,1,0,2.68,2.67A2.69,2.69,0,0,0,159.51,291.54Zm0,4.91a2.23,2.23,0,1,1,2.21-2.24A2.23,2.23,0,0,1,159.51,296.45Zm-19.89-16.06c0,.15,0,.3-.05.46a2.22,2.22,0,0,1,.07,4.22c0,.11,0,.23,0,.34s0,.08,0,.12a2.68,2.68,0,0,0-.08-5.14Zm36.75,52.5a2.68,2.68,0,1,0-2.68,2.87,2.73,2.73,0,0,0,.41,0l.51-.63a2.17,2.17,0,0,1-.92.2,2.23,2.23,0,1,1,2.23-2.23,2.3,2.3,0,0,1,0,.45Z" style="fill:#fff"></path><path d="M188.5,317.68l-27.06,33.93S144,319,139.68,285.42c-.85-6.6,1.24-11.81,5.44-12.4Z" style="opacity:0.1"></path><path d="M184.9,309.84c-5.19,5.5-18.83,20.83-26.4,32-.05.07.19.27.24.21,7.69-8.3,21.82-25.93,26.51-31.86C185.34,310,185,309.74,184.9,309.84Z" style="fill:#263238"></path><path d="M50.23,405.45l131.83-.31-7.29-45.33s10.43-12.65,8.46-26.37c-2.17-15-29.28-53.16-31.56-55.31-9.18-8.61-18.9-10.16-28.23-7.05h0C80.31,298.18,50.23,405.45,50.23,405.45Z" style="fill:#7E57C2"></path><path d="M179.28,387.86a2.22,2.22,0,0,1-3.93-1.41,2.23,2.23,0,0,1,2.23-2.24,2.14,2.14,0,0,1,1.17.34l-.09-.57a2.58,2.58,0,0,0-1.08-.23,2.69,2.69,0,1,0,1.79,4.69ZM152.67,374a2.69,2.69,0,1,0,2.68,2.69A2.69,2.69,0,0,0,152.67,374Zm0,4.91a2.23,2.23,0,1,1,2.22-2.22A2.23,2.23,0,0,1,152.67,378.92Zm21-48.53a2.69,2.69,0,1,0,2.69,2.68A2.68,2.68,0,0,0,173.69,330.39Zm0,4.91a2.23,2.23,0,1,1,2.23-2.23A2.22,2.22,0,0,1,173.69,335.3Zm-96.64,63a2.69,2.69,0,1,0,0,5.37,2.69,2.69,0,0,0,0-5.37Zm0,4.91A2.22,2.22,0,1,1,79.26,401,2.22,2.22,0,0,1,77.05,403.17Zm27.32-13.73a2.69,2.69,0,1,0,2.67,2.69A2.69,2.69,0,0,0,104.37,389.44Zm0,4.9a2.22,2.22,0,1,1,2.21-2.21A2.22,2.22,0,0,1,104.37,394.34ZM83.72,321.57a2.34,2.34,0,0,0-.38,0l-.28.53a2.39,2.39,0,0,1,.66-.1,2.22,2.22,0,1,1-2.1,2.89l-.28.55a2.68,2.68,0,1,0,2.38-3.9Zm7.55,20.54a2.68,2.68,0,1,0,2.67,2.67A2.68,2.68,0,0,0,91.27,342.11Zm0,4.89a2.22,2.22,0,1,1,2.21-2.22A2.23,2.23,0,0,1,91.27,347Zm22.07-60.7a2.69,2.69,0,0,0,0,5.37,2.69,2.69,0,1,0,0-5.37Zm0,4.91a2.23,2.23,0,1,1,2.24-2.23A2.23,2.23,0,0,1,113.34,291.21ZM116,332.84a2.69,2.69,0,1,0,2.69,2.68A2.68,2.68,0,0,0,116,332.84Zm0,4.91a2.22,2.22,0,1,1,2.23-2.23A2.22,2.22,0,0,1,116,337.75Zm22.89-57.46a2.68,2.68,0,1,0,2.67,2.69A2.69,2.69,0,0,0,138.92,280.29Zm0,4.9a2.22,2.22,0,1,1,2.21-2.21A2.22,2.22,0,0,1,138.92,285.19Zm20.59,6.35a2.69,2.69,0,1,0,2.68,2.67A2.69,2.69,0,0,0,159.51,291.54Zm0,4.91a2.23,2.23,0,1,1,2.21-2.24A2.23,2.23,0,0,1,159.51,296.45Zm-9,99.13a2.69,2.69,0,1,0,2.68,2.68A2.68,2.68,0,0,0,150.46,395.58Zm0,4.91a2.23,2.23,0,1,1,2.21-2.23A2.22,2.22,0,0,1,150.46,400.49Zm-24.52-22.4a2.68,2.68,0,1,0,2.67,2.67A2.68,2.68,0,0,0,125.94,378.09Zm0,4.89a2.22,2.22,0,1,1,2.21-2.22A2.23,2.23,0,0,1,125.94,383Zm28.95-37.16a2.69,2.69,0,1,0,2.67,2.67A2.68,2.68,0,0,0,154.89,345.82Zm0,4.9a2.22,2.22,0,1,1,2.21-2.23A2.22,2.22,0,0,1,154.89,350.72ZM157.56,313a2.68,2.68,0,1,0,2.68,2.68A2.68,2.68,0,0,0,157.56,313Zm0,4.89a2.22,2.22,0,1,1,2.22-2.21A2.21,2.21,0,0,1,157.56,317.86Zm18.58,38.77a2.68,2.68,0,0,0-1.06,5.13l-.09-.57a2.21,2.21,0,0,1,1.15-4.1,1.9,1.9,0,0,1,.54.07l.26-.41A2.63,2.63,0,0,0,176.14,356.63Zm-35-28.69a2.69,2.69,0,1,0,2.68,2.69A2.7,2.7,0,0,0,141.15,327.94Zm0,4.9a2.22,2.22,0,1,1,2.21-2.21A2.22,2.22,0,0,1,141.15,332.84ZM72.28,356.63A2.68,2.68,0,1,0,75,359.3,2.68,2.68,0,0,0,72.28,356.63Zm0,4.89a2.22,2.22,0,1,1,2.21-2.22A2.22,2.22,0,0,1,72.28,361.52Zm53.66,41.2a2.68,2.68,0,0,0-2.68,2.56h.47a2.22,2.22,0,0,1,2.21-2.1,2.2,2.2,0,0,1,2.2,2.09h.47A2.68,2.68,0,0,0,125.94,402.72ZM105.23,360.8a2.68,2.68,0,1,0,2.68,2.67A2.68,2.68,0,0,0,105.23,360.8Zm0,4.89a2.22,2.22,0,1,1,2.22-2.22A2.21,2.21,0,0,1,105.23,365.69Zm1.33-54.08a2.68,2.68,0,1,0,2.7,2.68A2.68,2.68,0,0,0,106.56,311.61Zm0,4.89a2.22,2.22,0,0,1,0-4.43,2.22,2.22,0,1,1,0,4.43ZM59,379.82a2.76,2.76,0,0,0-.51.05l-.18.52a2.26,2.26,0,0,1,.69-.11,2.23,2.23,0,1,1,0,4.45,2.19,2.19,0,0,1-1.85-1l-.18.52a2.66,2.66,0,0,0,2,.95,2.69,2.69,0,1,0,0-5.37Zm29.17-4.44a2.69,2.69,0,1,0,2.69,2.67A2.68,2.68,0,0,0,88.16,375.38Zm0,4.9a2.22,2.22,0,1,1,2.23-2.23A2.22,2.22,0,0,1,88.16,380.28Zm42.68-25.87a2.68,2.68,0,1,0,2.67,2.68A2.7,2.7,0,0,0,130.84,354.41Zm0,4.89a2.21,2.21,0,1,1,2.21-2.21A2.22,2.22,0,0,1,130.84,359.3Zm-7-88.36a2.15,2.15,0,0,1-1.61.88h0l-.62.43a2.32,2.32,0,0,0,.46,0,2.7,2.7,0,0,0,2.44-1.56Zm8.28,29.8a2.69,2.69,0,1,0,2.7,2.67A2.68,2.68,0,0,0,132.17,300.74Zm0,4.91a2.23,2.23,0,1,1,2.24-2.24A2.23,2.23,0,0,1,132.17,305.65Z" style="fill:#fff"></path><path d="M166,296.44c2.55,4.24,5.37,8.34,8,12.52-1.07-3-2.13-5.93-3.31-8.85,0-.06.06-.11.09-.05a61.93,61.93,0,0,1,4.56,11,85,85,0,0,1,5.33,9.85,39.24,39.24,0,0,1,3.57,12.9,33.18,33.18,0,0,1-1.87,13.28,85.62,85.62,0,0,1-6.68,14.05c-.34.6-1.17.05-.89-.55,3.74-8,7.87-16.36,7.5-25.4s-4.54-17.18-8.62-24.93a123.72,123.72,0,0,0-8-13.68C165.55,296.43,165.86,296.25,166,296.44Z" style="fill:#263238"></path><path d="M153.91,356.35a109.53,109.53,0,0,0-16,2.63c-2.61.67-5.17,1.45-7.72,2.29-1.28.42-2.56.8-3.85,1.17a17.54,17.54,0,0,1-4.12.78.1.1,0,0,0,0,.19,29.38,29.38,0,0,0,4-.07,28.63,28.63,0,0,0,3.78-.72c2.65-.65,5.27-1.43,7.92-2.11,5.33-1.37,10.66-2.74,16.08-3.72C154.22,356.75,154.16,356.32,153.91,356.35Z" style="fill:#263238"></path><path d="M167.23,361.12a119.45,119.45,0,0,0-13.37-.64c-2.24,0-4.45.18-6.68.4q-1.59.15-3.18.36c-1.16.15-2.31.45-3.48.58-.12,0-.12.21,0,.2,1.1-.1,2.22,0,3.33,0l3.34-.09c2.23,0,4.45-.08,6.68-.16,4.46-.15,8.9-.25,13.36-.25C167.48,361.49,167.46,361.15,167.23,361.12Z" style="fill:#263238"></path><path d="M107.61,283C74,318.15,32.28,391.7,40.54,406.33c9.2,16.3,57.24-33.51,55.72-35.91-1.29-2,15.82-46.61,28-79S115.91,274.26,107.61,283Z" style="fill:#ad6359"></path><path d="M66.47,325.16l48.21,8.68s12-34.17,14.43-53.13c1.33-10.63-4.91-11.07-12.77-5.42C88.83,295.06,66.47,325.16,66.47,325.16Z" style="fill:#7E57C2"></path><path d="M83.72,321.57a2.68,2.68,0,1,0,2.68,2.67A2.68,2.68,0,0,0,83.72,321.57Zm0,4.89a2.22,2.22,0,1,1,2.21-2.22A2.22,2.22,0,0,1,83.72,326.46Zm29.62-40.16a2.69,2.69,0,0,0,0,5.37,2.69,2.69,0,1,0,0-5.37Zm0,4.91a2.23,2.23,0,1,1,2.24-2.23A2.23,2.23,0,0,1,113.34,291.21Zm-21.07,5.62a2.72,2.72,0,0,0-1.17.27h0l-1.24,1.25h0a2.59,2.59,0,0,0-.26,1.15,2.69,2.69,0,1,0,2.68-2.68Zm0,4.91a2.23,2.23,0,1,1,2.23-2.23A2.22,2.22,0,0,1,92.27,301.74Zm21.78,32,.56.1a.39.39,0,0,1,.1-.08l.24-.68A2.48,2.48,0,0,0,114.05,333.73Zm-7.49-22.12a2.68,2.68,0,1,0,2.7,2.68A2.68,2.68,0,0,0,106.56,311.61Zm0,4.89a2.22,2.22,0,0,1,0-4.43,2.22,2.22,0,1,1,0,4.43Zm15.24-44.23.31,0a2.66,2.66,0,0,0,1.55-.5A9.45,9.45,0,0,0,121.8,272.27Z" style="fill:#fff"></path><path d="M114.37,325.94c-7.31-1.95-27.28-6.66-40.66-8-.08,0-.15.29-.07.31,11,2.82,33.18,6.86,40.63,8.17C114.41,326.41,114.5,326,114.37,325.94Z" style="fill:#263238"></path><path d="M108.81,332.78c2,.19,4,.43,5.94.69l-.42.25q2.16-7.87,4.75-15.62c1.72-5.15,3.53-10.28,5.61-15.34-1.26,5.31-2.78,10.54-4.39,15.73S116.93,328.85,115,334l-.12.31-.29-.06C112.67,333.76,110.74,333.29,108.81,332.78Z" style="fill:#263238"></path><path d="M121.5,313.16a14.8,14.8,0,0,1,1.64-3,22.11,22.11,0,0,1,2.18-2.71,6,6,0,0,1-.57,1.66,10.65,10.65,0,0,1-.87,1.5A11.43,11.43,0,0,1,121.5,313.16Z" style="fill:#263238"></path><path d="M41.62,407.83c9.11,9.86,30.14,9.1,83.25,12.16,7.35.42,24.29-50.64,16.46-51.49-9.85-1.08-48.34-3.13-51.17-2.92C66.27,367.31,35.45,401.15,41.62,407.83Z" style="fill:#ad6359"></path><path d="M130.66,367.55s22.37.32,34.07,4.12c15.67,5.09,27.1,15.94,31.61,20.78,9.43,10.09,25.24,41,17.13,47.11-7.35,5.53-21.91-26.89-21.91-26.89s20.3,30.6,10.24,35.64S177,414.74,177,414.74s20.16,31.91,9,35.46c-8.46,2.68-23.81-31.52-23.81-31.52s17.14,27.55,8.55,30.68c-9.48,3.46-25.63-27.22-25.63-27.22-23.16,4.28-35.94-3.15-44.4-9.52C98.59,411.08,130.66,367.55,130.66,367.55Z" style="fill:#ad6359"></path><path d="M185.21,401.64c2.52,3.5,5.09,7,7.28,10.76s4.27,7.52,6.1,11.43c4.51,9.58,5.84,16.29,5.71,15.88-3-9.58-10.65-23-12.85-26.74s-4.19-7.54-6.38-11.26C185,401.62,185.15,401.55,185.21,401.64Z" style="fill:#263238"></path><path d="M171.64,409.32c3,4.62,6.18,9.09,9,13.84s5,9.47,7.51,14.38c.19.38-.08.36-.28,0-2.67-4.81-5.5-9-8.22-13.82s-5.25-9.66-8.13-14.32C171.48,409.31,171.59,409.25,171.64,409.32Z" style="fill:#263238"></path><path d="M158.8,413.81c5,6.83,8.68,14.56,12.14,22.23.17.38-.17.32-.37-.06-3.89-7.47-6.9-13.35-12-22C158.48,413.85,158.69,413.67,158.8,413.81Z" style="fill:#263238"></path><path d="M70.49,374c3.2-2.6,12.37-8.92,22.17-8.64.11,0,.13.15,0,.16-7.94.92-18.79,6.34-22.09,8.61A.08.08,0,0,1,70.49,374Z" style="fill:#263238"></path><path d="M130.05,270.41c.18,2.32,8.62,18.48,18.92,19.58,3.35.35,6.08-17.87,6.08-17.87l.51-1.3,7.12-18.19L142.74,235l-2.91-2.38s-1.62,5.11-3.57,11.49c-.09.29-.19.59-.28.9s-.24.7-.33,1c-.31,1-.61,1.92-.9,2.89-.22.74-.44,1.46-.64,2.24s-.42,1.55-.65,2.33C131.43,261.29,130,269.43,130.05,270.41Z" style="fill:#ad6359"></path><path d="M136.26,244.13a39.19,39.19,0,0,0,19.3,26.69l7.12-18.19L142.74,235l-2.91-2.38S138.21,237.75,136.26,244.13Z" style="fill:#263238"></path><path d="M194.44,231c-4.51,34-25.38,35.12-32.71,34.13-6.65-.89-29.18-4.77-28.2-39s18.21-42.91,33.53-41.67S199,197,194.44,231Z" style="fill:#ad6359"></path><path d="M189.56,227.31a22,22,0,0,1-2.18-.94,3.87,3.87,0,0,1-2-1.39,1.23,1.23,0,0,1,.3-1.46,3,3,0,0,1,3.07-.09,4.4,4.4,0,0,1,2.41,2.1A1.3,1.3,0,0,1,189.56,227.31Z" style="fill:#263238"></path><path d="M166.58,221.48a20.82,20.82,0,0,0,2.37,0,3.79,3.79,0,0,0,2.41-.47,1.22,1.22,0,0,0,.3-1.46,3,3,0,0,0-2.78-1.29,4.43,4.43,0,0,0-3,1A1.3,1.3,0,0,0,166.58,221.48Z" style="fill:#263238"></path><path d="M170.2,229c0-.09-.19.08-.21.17-.34,2.31-1.12,4.9-3.34,5.29a.07.07,0,0,0,0,.13C169.25,234.64,170.25,231.19,170.2,229Z" style="fill:#263238"></path><path d="M168.59,226.18c-3.65-1-5.27,6.41-1.9,7.29S171.64,227,168.59,226.18Z" style="fill:#263238"></path><path d="M167.06,226.25c-.74.27-1.53.87-2.32.77s-1.42-1-1.85-1.9c0-.09-.12,0-.14.06-.33,1.41-.11,3,1.35,3.52s2.61-.54,3.27-1.88C167.49,226.58,167.35,226.14,167.06,226.25Z" style="fill:#263238"></path><path d="M183.81,231.08c0-.08.15.15.13.24-.6,2.26-.9,5,1,6.17.06,0,0,.16-.05.13C182.45,236.69,182.88,233.13,183.81,231.08Z" style="fill:#263238"></path><path d="M186.38,229.17c3.73.56,2.33,8-1.12,7.45S183.26,228.7,186.38,229.17Z" style="fill:#263238"></path><path d="M187.84,230c.51.5.95,1.32,1.64,1.5s1.55-.48,2.21-1.15c.07-.07.12,0,.1.1-.22,1.42-1,2.81-2.38,2.83s-2-1.38-2-2.85C187.35,230.11,187.63,229.75,187.84,230Z" style="fill:#263238"></path><path d="M166.57,248.6c.4.67.74,1.54,1.54,1.83a6.22,6.22,0,0,0,2.58.09.08.08,0,0,1,.06.14,3.12,3.12,0,0,1-3.19.45,2.47,2.47,0,0,1-1.23-2.47C166.33,248.5,166.51,248.5,166.57,248.6Z" style="fill:#263238"></path><path d="M177.85,242.34s-.24,3.51-.58,5.12c0,.15-.43.14-1,0,0,0,0,0-.06,0a7.83,7.83,0,0,1-6.84-4.41.17.17,0,0,1,.29-.17,11.81,11.81,0,0,0,6.57,3.46c.21-.42.21-6,.47-6a14.23,14.23,0,0,1,3.48,1.59c.72-7.3.26-14.65,1.08-21.91a.22.22,0,0,1,.44,0c1,7.68.39,16.1-.15,23.65C181.5,244.65,178.44,242.74,177.85,242.34Z" style="fill:#263238"></path><path d="M142.8,189.81c-1.16,2.69-16.61,4.54-23.41-5.89-6.7-10.28,2.17-22.93,14.46-16.9C141.62,170.84,145.25,184.11,142.8,189.81Z" style="fill:#263238"></path><path d="M119.18,169.79a17.18,17.18,0,0,1,10-5.33A10.35,10.35,0,0,1,138.9,168c2.46,2.77,3.73,6.5,4.41,10.26a31.74,31.74,0,0,1,.42,5.78,15.84,15.84,0,0,1-.93,5.77,14,14,0,0,0,2-5.68A25.82,25.82,0,0,0,145,178a20.2,20.2,0,0,0-4.44-11.47,11.53,11.53,0,0,0-11.69-3.78A15.15,15.15,0,0,0,119.18,169.79Z" style="fill:#263238"></path><path d="M135.22,227.55c6,2.47,11.44-11.35,11.44-11.35s27.7,2.66,35.77-18.3c0,0,.83,15,13,24.94,0,0,5.46-23.9-12-33.55,0,0-21-14.74-39,.19S131.19,225.9,135.22,227.55Z" style="fill:#263238"></path><path d="M183,196.33a24.39,24.39,0,0,1-3.84,9.53,25.39,25.39,0,0,1-7.35,7.36,22.18,22.18,0,0,1-2.27,1.3l-1.15.63c-.4.17-.81.32-1.22.48-.82.3-1.62.64-2.45.9s-1.69.41-2.53.6c-.43.09-.85.2-1.27.27l-1.29.14-2.57.27c-1.72,0-3.44-.06-5.14-.16,1.7-.26,3.4-.33,5.06-.6l2.49-.48,1.23-.23c.41-.11.8-.25,1.2-.37.8-.26,1.6-.5,2.4-.73s1.53-.65,2.29-1l1.15-.49,1.08-.6a21.9,21.9,0,0,0,2.14-1.27,29,29,0,0,0,7.23-6.75,30.61,30.61,0,0,0,2.73-4.21A29.21,29.21,0,0,0,183,196.33Z" style="fill:#263238"></path><path d="M133.46,204.91l-2.78,2.38,6.83,11.54,6.1-5.43Zm4.69,10.5-5-7.39.64-.57,6.53,6.09Z" style="fill:#7E57C2"></path><path d="M136.15,199.75,134.48,203l10.67,8.11,3.61-7.33Zm8.31,8-7.39-5,.37-.77,8.34,3.18Z" style="fill:#7E57C2"></path><path d="M138.58,229.38s-5-12.07-10.3-10.52-3.19,17.92,1.91,21.23a5.8,5.8,0,0,0,8.26-1.36Z" style="fill:#ad6359"></path><path d="M129,223.54c-.09,0-.13.09-.06.14,3.55,2.45,4.8,6.52,5.4,10.59-.84-1.7-2.24-2.84-4.48-1.89-.12.05-.06.23.06.23a3.59,3.59,0,0,1,3.56,2.07,17.14,17.14,0,0,1,1.14,3.51c.11.39.78.34.74-.09,0,0,0-.07,0-.1C136.56,233.05,134.24,225.23,129,223.54Z" style="fill:#263238"></path></g><g id="freepik--Padlock--inject-18"><path d="M289.74,90.7v28h-7.91v-28c0-10.64-8.08-19.29-18-19.29s-18,8.65-18,19.29v28h-7.91v-28c0-15.24,11.63-27.63,25.93-27.63S289.74,75.46,289.74,90.7Z" style="fill:#c7c7c7"></path><polygon points="237.88 97.97 245.79 98.29 245.79 118.68 237.88 118.68 237.88 97.97" style="fill:#a6a6a6"></polygon><polygon points="289.74 100.08 289.74 118.68 281.83 118.68 281.83 99.76 289.74 100.08" style="fill:#a6a6a6"></polygon><rect x="227.75" y="102.75" width="72.12" height="65.43" style="fill:#7E57C2"></rect><rect x="263.81" y="102.75" width="36.06" height="65.43" style="opacity:0.1"></rect><path d="M266.86,137.86l3,14.32H257.07l3-14.32a6.41,6.41,0,1,1,6.77,0Z" style="fill:#263238"></path></g></svg>