<svg xmlns="http://www.w3.org/2000/svg" viewBox="0 0 500 500"><g id="freepik--Rocket--inject-20"><path d="M150.88,480.71c-.12-.07,14.86-27.34,33.47-60.89s33.8-60.72,33.93-60.65-14.86,27.33-33.47,60.9S151,480.78,150.88,480.71Z" style="fill:#263238"></path><path d="M103.17,480.71l.45-.61,1.36-1.76,5.29-6.81,19.82-25.38c17-21.63,40.79-52,68.31-87.16l.16-.21.2.18,12.75,11.75.48.45H189.37l.23-.38c1.91,3.47,4,7.18,6,10.93l5.14,9.3.21.39h-27.5l.22-.38q7.15,12.18,13.92,23.69l.22.37h-.43l-32.53,0,.19-.36,18.15,25.91.22.32h-.39l-38.49-.05.12-.23,15,24.14,3.94,6.41,1,1.66.33.57-.37-.55c-.24-.38-.58-.92-1-1.63-.91-1.46-2.26-3.59-4-6.37L134.44,440.8l-.15-.23h.28l38.49-.06-.17.32L154.7,415l-.25-.36h33l-.22.37q-6.75-11.49-13.93-23.68l-.23-.39h27.51l-.22.38-5.15-9.3-6-10.93-.21-.39h22.4l-.17.45-12.74-11.76.37,0c-27.57,35.08-51.45,65.44-68.44,87.05L110.4,471.64l-5.35,6.75-1.39,1.74C103.34,480.52,103.17,480.71,103.17,480.71Z" style="fill:#263238"></path><path d="M377.34,480.2c-.12.07-15.31-27-33.92-60.38s-33.6-60.58-33.47-60.65,15.31,27,33.92,60.39S377.47,480.13,377.34,480.2Z" style="fill:#263238"></path><path d="M425.05,480.2s-.17-.19-.48-.57l-1.39-1.73-5.36-6.73L397.88,446,329.43,359.3l.37,0L317.07,371l-.18-.44H339.3l-.22.39L333,381.93l-5.11,9.2-.23-.39h27.52l-.23.38L341,414.72l-.21-.37h33l-.26.36L355.33,440.5l-.16-.32,38.49.05h.27l-.14.23-15.08,24c-1.75,2.77-3.09,4.9-4,6.34l-1,1.63c-.23.36-.36.54-.36.54s.1-.19.33-.56l1-1.65,3.95-6.38,14.95-24.05.13.23-38.49.05h-.39l.22-.32,18.15-25.8.18.36-32.52,0h-.43l.22-.37q6.75-11.46,13.92-23.6l.22.39H327.23l.22-.38,5.1-9.2,6.08-10.95.23.38H316.23l.49-.45L329.46,359l.2-.18.17.21,68.3,86.8L418,471.07l5.29,6.77,1.35,1.76C424.91,480,425.05,480.2,425.05,480.2Z" style="fill:#263238"></path><path d="M381.84,445.45A38.7,38.7,0,0,0,347.89,433a26,26,0,0,0-7.92-23.8c-6.48-5.87-19.17-8.6-27.54-6.09l.26-50.36c-1.69-.08-35.75,0-49.32,0s-47.64-.07-49.33,0l.26,50.36c-8.37-2.51-21.06.22-27.54,6.09a26,26,0,0,0-7.92,23.8,38,38,0,0,0-42.09,47.75H390A38.72,38.72,0,0,0,381.84,445.45Z" style="fill:#fafafa"></path><path d="M381.84,445.45s.55.62,1.57,1.87a38.89,38.89,0,0,1,3.83,6.09,39.68,39.68,0,0,1,3.62,11.2,38.49,38.49,0,0,1-.77,16.13l0,.08H390L136.75,481h-.19l-.05-.18a38.67,38.67,0,0,1-.82-16.11,39.44,39.44,0,0,1,5.9-15.31,37.27,37.27,0,0,1,12.06-11.47,40.11,40.11,0,0,1,16-5.34,36.94,36.94,0,0,1,9.22.15l-.29.31A26.16,26.16,0,0,1,188,407.78a31.46,31.46,0,0,1,12.74-5.25,29.61,29.61,0,0,1,13.6.3l-.33.24c-.09-17.27-.18-34.09-.26-50.36v-.25H214l98.67,0h.2v.21c-.11,18.34-.21,35.17-.3,50.36l-.22-.16a26.36,26.36,0,0,1,8.13-.91,36.5,36.5,0,0,1,7.76,1.14c4.94,1.3,9.52,3.5,12.78,6.87A26.19,26.19,0,0,1,348,433l-.13-.14A38.59,38.59,0,0,1,364,434.1a40.19,40.19,0,0,1,10.65,5,39.37,39.37,0,0,1,5.56,4.56c1.11,1.18,1.65,1.79,1.65,1.79l-.43-.43-1.26-1.31a41.39,41.39,0,0,0-5.58-4.51,40.18,40.18,0,0,0-10.64-4.93,38.3,38.3,0,0,0-16-1.2l-.16,0,0-.15a26,26,0,0,0-6.92-22.73c-3.23-3.31-7.76-5.48-12.66-6.75a35.94,35.94,0,0,0-7.69-1.12,26.13,26.13,0,0,0-8,.9l-.23.07v-.24c.07-15.2.15-32,.24-50.36l.19.21-98.63,0,.23-.24q.14,24.41.28,50.36v.34l-.33-.09a29.2,29.2,0,0,0-13.35-.29,31,31,0,0,0-12.53,5.17,25.62,25.62,0,0,0-9.25,24.71l.07.36-.36-.06a36.93,36.93,0,0,0-9.1-.14,39.54,39.54,0,0,0-15.79,5.27A36.55,36.55,0,0,0,142,449.65a38.86,38.86,0,0,0-5.83,15.1,38.12,38.12,0,0,0,.8,15.89l-.25-.19,253.23.14-.11.09a38.3,38.3,0,0,0,.82-16,40.2,40.2,0,0,0-3.56-11.18,40.83,40.83,0,0,0-3.76-6.11l-1.15-1.42Z" style="fill:#263238"></path><path d="M324.48,454.34a1.36,1.36,0,0,1,0-.29c0-.21,0-.49-.06-.85a12.44,12.44,0,0,0-.15-1.38,17,17,0,0,0-.35-1.87A23.85,23.85,0,0,0,311.36,434a20.92,20.92,0,0,0-9.67-2.17,23.91,23.91,0,0,0-10.77,2.81,22.51,22.51,0,0,0-8.83,8.28l-.19.31-.22-.28A26.92,26.92,0,0,0,263,433.28a25.13,25.13,0,0,0-10.13,1.26,26.27,26.27,0,0,0-8.48,4.94,26.74,26.74,0,0,0-8.89,15.42l-.06.34-.29-.19a22.19,22.19,0,0,0-16.47-3.22,21.41,21.41,0,0,0-11.42,6.45,22.46,22.46,0,0,0-5.26,9.44l-.15.56c0,.13-.06.19-.07.19a15.74,15.74,0,0,1,.8-3,22.28,22.28,0,0,1,9.25-11.35,21,21,0,0,1,6.77-2.69,22.54,22.54,0,0,1,16.81,3.21l-.36.15a27.06,27.06,0,0,1,9-15.72,26.79,26.79,0,0,1,8.64-5.05A25.31,25.31,0,0,1,263,432.77a27.3,27.3,0,0,1,19.07,9.91l-.41,0a23,23,0,0,1,9-8.45,24.42,24.42,0,0,1,11-2.82,21.24,21.24,0,0,1,9.84,2.26,23.9,23.9,0,0,1,12.52,16.21,16.5,16.5,0,0,1,.3,1.89,8.54,8.54,0,0,1,.11,1.4c0,.35,0,.64,0,.85A1.29,1.29,0,0,1,324.48,454.34Z" style="fill:#263238"></path><path d="M273,419.9c-.05,0-.15-.85-.63-2.34a17.39,17.39,0,0,0-3.19-5.75,16.26,16.26,0,0,0-8.15-5.3,17,17,0,0,0-11.93,1.1l-.32.16-.05-.35a16.37,16.37,0,0,0-1.1-4,17.2,17.2,0,0,0-9.5-9.36,15,15,0,0,0-5.84-1.07,17.6,17.6,0,0,0-11.67,4.58c-1.31,1.22-1.88,2.06-1.93,2a2.83,2.83,0,0,1,.41-.6,12.62,12.62,0,0,1,1.38-1.57,17.16,17.16,0,0,1,6.55-4,17.73,17.73,0,0,1,5.25-.9,15.58,15.58,0,0,1,6,1.05,17.64,17.64,0,0,1,9.81,9.61,16.93,16.93,0,0,1,1.12,4.1l-.37-.2a17.3,17.3,0,0,1,12.28-1.08,16,16,0,0,1,4.89,2.32,17.27,17.27,0,0,1,3.41,3.2,16.75,16.75,0,0,1,3.1,5.92,12,12,0,0,1,.39,1.76A2.49,2.49,0,0,1,273,419.9Z" style="fill:#263238"></path><path d="M280.47,421.47c-.14,0-.26-10.76-.26-24s.12-24,.26-24,.27,10.76.27,24S280.62,421.47,280.47,421.47Z" style="fill:#263238"></path><path d="M286.26,398.78c-.14,0-.26-7.87-.26-17.58s.12-17.57.26-17.57.26,7.86.26,17.57S286.4,398.78,286.26,398.78Z" style="fill:#263238"></path><polygon points="318.32 317.32 318.1 299.96 261.16 299.96 211.13 299.96 210.96 316.48 197.19 345.38 197.19 363.24 267.18 362.19 331.15 363.21 331.15 345.37 318.32 317.32" style="fill:#f5f5f5"></polygon><path d="M318.32,317.32s.08.15.23.47.37.79.66,1.39c.58,1.25,1.43,3.07,2.53,5.45l9.54,20.68v.06c0,5.26,0,11.27,0,17.84v.18h-.18l-59.32-.89-4.29-.07-4.35.06-8.86.14-18.34.28-38.79.59h-.26V345.33l0-.06,13.78-28.9,0,.1q.09-8.45.17-16.51v-.25h.24l107,.14h.11V300c.05,5.63.08,10,.11,12.9,0,1.46,0,2.57,0,3.33s0,1.13,0,1.13,0-.38,0-1.12,0-1.87-.07-3.32c0-2.94-.12-7.28-.21-12.92l.1.11-107,.13.24-.24q-.08,8.07-.16,16.52v.06l0,0c-4.44,9.31-9,19-13.77,28.91l0-.11v17.85l-.26-.26L236,362.4l18.35-.27,8.86-.12,4.35-.06,4.29.08,59.33,1-.18.17c0-6.57,0-12.58,0-17.84l0,.06c-4.06-8.93-7.24-15.95-9.42-20.76-1.08-2.39-1.9-4.22-2.46-5.47-.27-.61-.48-1.08-.63-1.4Z" style="fill:#263238"></path><rect x="197.58" y="345.63" width="132.85" height="16.9" style="fill:#e0e0e0"></rect><path d="M209.88,215.06l-.36.31c-20.71,18.23-32.74,45.85-32.76,75h0l33.07-6.91Z" style="fill:#7E57C2"></path><rect x="209.69" y="211.8" width="109.59" height="75.95" style="fill:#f5f5f5"></rect><path d="M264.4,40.86c-8.57,0-24.34,24.32-39,65-1,2.77-1.93,5.27-2.8,7.64V116h83.1v-2.25c-.75-2.74-1.54-5.39-2.38-7.88-13.72-40.86-30.34-65-38.91-65" style="fill:#7E57C2"></path><path d="M264.4,40.86l.41,0a5,5,0,0,1,1.21.2,12.56,12.56,0,0,1,4.13,2.31c3.27,2.57,7.22,7.24,11.31,13.66a180.4,180.4,0,0,1,12.6,24.11c2.09,4.77,4.16,9.9,6.17,15.33,1,2.71,2,5.51,3,8.37s1.79,5.85,2.72,8.86v.06c0,.7,0,1.47,0,2.25v.24h-.25l-41.58,0-41.52,0h-.25v-2.85l0,0c2.17-5.87,4.2-11.56,6.31-16.94S232.89,86,235,81.24a199.3,199.3,0,0,1,12.55-24c4-6.43,7.89-11.16,11.12-13.77a12.27,12.27,0,0,1,4.09-2.34,5,5,0,0,1,1.21-.2l.41,0-.41.06a5.93,5.93,0,0,0-1.18.24,12.51,12.51,0,0,0-4,2.39c-3.17,2.63-7,7.36-11,13.8a202.66,202.66,0,0,0-12.44,24.06c-2.11,4.74-4.21,9.82-6.3,15.2s-4.1,11.06-6.27,16.94V116l-.25-.25h83.1l-.25.25v-2.18c-.92-3-1.75-6-2.69-8.84s-1.95-5.65-3-8.36c-2-5.43-4-10.55-6.12-15.32A181.94,181.94,0,0,0,281.2,57.21c-4-6.43-7.94-11.11-11.15-13.7A13,13,0,0,0,266,41.16a6,6,0,0,0-1.19-.24Z" style="fill:#263238"></path><path d="M319.27,213.23l.37.32c21.25,18.71,33.59,47,33.61,76.95h0l-33.92-7.1Z" style="fill:#7E57C2"></path><path d="M210.27,201.57s-.48-28,1.15-40.56,6.4-35,6.4-35h93.79a210.11,210.11,0,0,1,6.32,41.71c.84,21.66.83,34.18.83,34.18Z" style="fill:#f5f5f5"></path><path d="M210.27,201.57l.53,0h29.89l78.07.09-.24.24c-.46-21.14.1-44.67-5.43-68.57-.54-2.45-1.1-4.89-1.73-7.25l.25.19-93.79,0L218,126c-2.36,11.28-4.39,21.62-5.83,30.81q-.55,3.43-.9,6.68c-.2,2.16-.34,4.24-.46,6.24-.22,4-.32,7.69-.4,11-.15,6.64-.15,11.84-.16,15.39v5.07c0,.22,0,.35,0,.35s0-.11,0-.35,0-.59,0-1c0-.93,0-2.28-.07-4,0-3.55-.07-8.75,0-15.39.06-3.33.15-7,.36-11q.15-3,.43-6.26c.23-2.17.51-4.4.87-6.7,1.42-9.21,3.42-19.56,5.76-30.85l0-.17h.17l93.79-.05h.2l.05.19c.63,2.38,1.2,4.82,1.74,7.28a204,204,0,0,1,4.62,35.41c.43,11.53.73,22.66.78,33.27v.24h-.24l-78.23-.33-22.32-.12-5.92-.05-1.52,0Z" style="fill:#263238"></path><path d="M268.8,243.83c0,2.5-1.93,4.79-6.16,4.79A10.17,10.17,0,0,1,257,247l1.33-2.63a7.24,7.24,0,0,0,4.25,1.34c1.72,0,2.78-.7,2.78-1.91s-.83-1.83-2.78-1.83H261v-2.27l3.05-3.46h-6.32v-2.76h10.4v2.23l-3.35,3.82C267.44,240,268.8,241.64,268.8,243.83Z" style="fill:#263238"></path><path d="M270.53,177.07v2.8H259.3v-2.23l5.73-5.41c1.31-1.25,1.55-2,1.55-2.74,0-1.16-.81-1.84-2.38-1.84a3.65,3.65,0,0,0-3.08,1.48l-2.5-1.61a6.88,6.88,0,0,1,5.9-2.76c3.31,0,5.52,1.7,5.52,4.39,0,1.45-.41,2.76-2.49,4.7l-3.41,3.22Z" style="fill:#263238"></path><path d="M270.67,331h-2.42v3.12H264.9V331h-8v-2.31l7-9.42h3.61l-6.5,8.93h4v-2.78h3.25v2.78h2.42Z" style="fill:#263238"></path><path d="M265.15,81.84V96.7h-3.43V84.6h-3V81.84Z" style="fill:#263238"></path><path d="M312.76,130.64a4.5,4.5,0,0,1-.69,0l-2,0-7.53.07-26.2.09.21-.12-9.28,16.7c-.52.94-1,1.88-1.53,2.75l-.07.13h-.16l-37.16-.08-11.16-.08-3-.05-.78,0-.27,0a1.39,1.39,0,0,1,.27,0l.78,0,3-.05,11.16-.08,37.16-.08-.22.14c.48-.88,1-1.81,1.53-2.76l9.3-16.68.07-.13h.15l26.2.1,7.53.07,2,0A4.5,4.5,0,0,1,312.76,130.64Z" style="fill:#e0e0e0"></path><rect x="222.59" y="163.91" width="14.83" height="8" style="fill:#e0e0e0"></rect><polygon points="235.7 213.23 246.68 257.9 269.59 258.28 279.66 287.62 271 287.75 263.27 260.1 243.47 260.1 235.7 213.23" style="fill:#ebebeb"></polygon><path d="M235.46,211.8a1,1,0,0,1,.07.25l.15.72q.18,1,.51,2.79l1.79,10.3c1.47,8.73,3.48,20.73,5.71,34l0,.21-.26-.21,19.8,0h.18l.05.17c2.23,8.15,4.13,15.06,5.48,20,.65,2.41,1.16,4.33,1.53,5.7.16.63.28,1.13.38,1.51a4.31,4.31,0,0,1,.11.53,1.81,1.81,0,0,1-.18-.5c-.12-.38-.27-.88-.46-1.5-.4-1.36-.95-3.27-1.65-5.66-1.4-4.91-3.36-11.8-5.67-19.93l.23.17-19.8,0h-.22l0-.22,0-.22c-2.17-13.26-4.14-25.26-5.56-34-.69-4.33-1.24-7.84-1.63-10.32-.18-1.19-.32-2.13-.42-2.81,0-.3-.07-.54-.09-.73A1,1,0,0,1,235.46,211.8Z" style="fill:#e0e0e0"></path><path d="M319.3,249.78a3.26,3.26,0,0,1-.65.05l-1.87,0-6.93.08-23.14.08h-.26v-2.95c0-9.72.05-18.52.07-25,0-3.15.06-5.72.08-7.56,0-.86,0-1.54,0-2.06a3.42,3.42,0,0,1,.06-.72,5.86,5.86,0,0,1,.05.72c0,.52,0,1.2.05,2.06,0,1.84.05,4.41.08,7.56,0,6.43.05,15.23.08,25v2.69l-.26-.26,23.14.08,6.93.08,1.87,0A2.51,2.51,0,0,1,319.3,249.78Z" style="fill:#e0e0e0"></path><path d="M316.33,150.08l-.32,0-.93,0-3.54.06-12.74.09.21-.22c0,6.59,0,14.6.05,23.24,0,7.66,0,14.83,0,20.89l-.22-.23,14.42.1,4,.06,1.07,0a1.26,1.26,0,0,1,.36,0l-.36,0-1.07,0-4,.06-14.42.09h-.23v-.22c0-6.06,0-13.23,0-20.89,0-8.64,0-16.65,0-23.24v-.21h.22l12.74.09,3.54.06.93,0A1.34,1.34,0,0,1,316.33,150.08Z" style="fill:#e0e0e0"></path><g style="opacity:0.30000000000000004"><path d="M319.3,287.62c-34.49-9.58-71.23-6.07-108.78,0Z"></path></g><g style="opacity:0.30000000000000004"><path d="M318.76,201.86c-45.24-7.65-71.12-6.36-108.67-.28Z"></path></g><g style="opacity:0.30000000000000004"><path d="M305.69,116c-39.53-7.65-50.3-6.08-83.1,0Z"></path></g><rect x="300.27" y="258.34" width="3.47" height="14.97" style="fill:#7E57C2"></rect><path d="M198.19,344.61c0-.14,29.77-.21,66.48-.14s66.48.23,66.48.37-29.76.21-66.48.15S198.19,344.76,198.19,344.61Z" style="fill:#263238"></path><path d="M318.6,316.48c0,.14-24,.26-53.67.26s-53.68-.12-53.68-.26,24-.26,53.68-.26S318.6,316.33,318.6,316.48Z" style="fill:#263238"></path><path d="M318.6,311.84c0,.14-24,.26-53.67.26s-53.68-.12-53.68-.26,24-.26,53.68-.26S318.6,311.69,318.6,311.84Z" style="fill:#263238"></path><path d="M318.6,307.2c0,.14-24,.26-53.67.26s-53.68-.12-53.68-.26,24-.26,53.68-.26S318.6,307.06,318.6,307.2Z" style="fill:#263238"></path><path d="M318.6,302.56c0,.14-24,.26-53.67.26s-53.68-.12-53.68-.26,24-.26,53.68-.26S318.6,302.42,318.6,302.56Z" style="fill:#263238"></path><path d="M331.15,354.6c0,.15-30,.26-67,.26s-67-.11-67-.26,30-.26,67-.26S331.15,354.46,331.15,354.6Z" style="fill:#263238"></path><path d="M331.15,350c0,.15-30,.27-67,.27s-67-.12-67-.27,30-.26,67-.26S331.15,349.82,331.15,350Z" style="fill:#263238"></path><path d="M205,225.19a3.51,3.51,0,0,1-.36.53l-1.1,1.45c-.5.62-1.08,1.39-1.74,2.3s-1.43,1.93-2.21,3.11c-1.63,2.31-3.41,5.17-5.29,8.4s-3.72,6.91-5.47,10.84-3.17,7.81-4.35,11.35c-.57,1.78-1.11,3.47-1.54,5.08s-.84,3.1-1.18,4.47-.59,2.63-.84,3.72-.43,2.05-.58,2.83-.26,1.32-.35,1.78a2.78,2.78,0,0,1-.16.62,2.71,2.71,0,0,1,.05-.63c.07-.47.16-1.07.26-1.81s.27-1.74.49-2.85.43-2.37.77-3.74.66-2.9,1.12-4.51.94-3.32,1.5-5.11a118.4,118.4,0,0,1,4.33-11.41,121.88,121.88,0,0,1,5.53-10.87c1.92-3.23,3.74-6.08,5.41-8.37.8-1.17,1.6-2.18,2.28-3.07s1.29-1.66,1.81-2.26l1.18-1.39A3.93,3.93,0,0,1,205,225.19Z" style="fill:#fff"></path><path d="M263.2,46.51a11.64,11.64,0,0,0-2.7,1.13,17.92,17.92,0,0,0-5.5,5.75c-3.59,5.77-8.15,14-12.73,23.37s-8.23,18-10.72,24.38c-1.25,3.18-2.22,5.76-2.89,7.54-.32.86-.58,1.54-.77,2.06a4.76,4.76,0,0,1-.31.71,5.4,5.4,0,0,1,.21-.74l.68-2.09c.61-1.81,1.53-4.42,2.73-7.61,2.41-6.39,6-15.12,10.6-24.48a247.81,247.81,0,0,1,12.9-23.35,17.49,17.49,0,0,1,5.7-5.72,8.58,8.58,0,0,1,2.05-.82A3.29,3.29,0,0,1,263.2,46.51Z" style="fill:#fff"></path><path d="M213.11,197.18a2.94,2.94,0,0,1,0-.68c0-.5,0-1.15,0-2,0-1.7.11-4.17.26-7.21.31-6.08,1-14.47,2.2-23.68s2.79-17.49,4.09-23.43c.64-3,1.2-5.38,1.63-7,.2-.79.37-1.42.49-1.9a3,3,0,0,1,.21-.65,3.11,3.11,0,0,1-.11.67l-.39,1.92c-.37,1.66-.87,4.07-1.47,7-1.21,6-2.7,14.23-3.93,23.43s-2,17.57-2.35,23.64c-.2,3-.35,5.49-.43,7.19q-.08,1.2-.12,1.95A2.79,2.79,0,0,1,213.11,197.18Z" style="fill:#fff"></path><path d="M213.84,276c-.14,0-.26-12.84-.26-28.68s.12-28.69.26-28.69.26,12.84.26,28.69S214,276,213.84,276Z" style="fill:#fff"></path><g style="opacity:0.30000000000000004"><path d="M209.83,281.68s1-44.91,0-66.62c-4,10.5-8.38,22.52-9.25,33.85A50.71,50.71,0,0,0,209.83,281.68Z"></path></g><path d="M210.23,287.75l.52,0,1.52,0,5.94,0,22.39-.07,78.67-.09-.23.23c0-23,0-48.8,0-75.95l.26.26h-.56l-109-.64.21-.21c0,23.26-.07,42.39-.09,55.72,0,6.65-.05,11.85-.06,15.41,0,1.76,0,3.11,0,4s0,1.38,0,1.38,0-.47,0-1.38,0-2.27,0-4c0-3.56,0-8.76-.06-15.41,0-13.33,0-32.46-.09-55.72V211h.21l109,.54h.81v.26c0,27.15,0,52.93,0,75.95V288h-.24l-78.67-.09-22.39-.07-5.94,0-1.52,0C210.41,287.77,210.23,287.75,210.23,287.75Z" style="fill:#263238"></path><path d="M331.15,359.24c0,.15-30,.26-67,.26s-67-.11-67-.26,30-.26,67-.26S331.15,359.1,331.15,359.24Z" style="fill:#263238"></path></g><g id="freepik--Character--inject-20"><path d="M75.46,233.14l0,30.12c0,5.13,6.15,14.31,14.25,13.95h.66c7-.84,3-9.17,3-14,0-2.27,0-4.16,0-4.4,0,0,7.67-.71,8.23-8.3.27-3.67.21-11.27.08-18.15a14.18,14.18,0,0,0-13.31-13.87l-.74,0C79.71,218.48,75.26,225.21,75.46,233.14Z" style="fill:#ffbe9d"></path><path d="M93.38,258.87a18.39,18.39,0,0,1-9.72-3.53s2.08,5.7,9.7,5.48Z" style="fill:#eb996e"></path><path d="M88.76,235.68c-.15.16-1-.54-2.31-.56s-2.21.62-2.34.45.08-.35.49-.65a3.24,3.24,0,0,1,1.89-.55,3.1,3.1,0,0,1,1.83.64C88.7,235.32,88.83,235.61,88.76,235.68Z" style="fill:#263238"></path><path d="M88.93,239.22a1,1,0,0,1-1.05,1,1,1,0,0,1-1-1,1,1,0,0,1,1.05-1A1,1,0,0,1,88.93,239.22Z" style="fill:#263238"></path><path d="M92,244.48a7.39,7.39,0,0,1,1.92-.22c.3,0,.59-.06.65-.26a1.48,1.48,0,0,0-.15-.89c-.23-.74-.48-1.52-.74-2.33a38.67,38.67,0,0,1-1.61-6.06,40.22,40.22,0,0,1,2.1,5.92c.24.81.48,1.59.7,2.33a1.74,1.74,0,0,1,.08,1.18.74.74,0,0,1-.51.41,2.46,2.46,0,0,1-.51,0A7.39,7.39,0,0,1,92,244.48Z" style="fill:#263238"></path><path d="M88.16,231.55c-.12.28-1.14.08-2.35.16s-2.22.36-2.36.09.12-.39.53-.65a4,4,0,0,1,1.78-.52,3.78,3.78,0,0,1,1.81.33C88,231.18,88.21,231.42,88.16,231.55Z" style="fill:#263238"></path><path d="M100.26,232.6c-.13.23-1.13,0-2.33,0s-2.2.14-2.33-.1.14-.32.56-.51a4.54,4.54,0,0,1,3.54.1C100.12,232.27,100.31,232.49,100.26,232.6Z" style="fill:#263238"></path><path d="M75.73,238.8c-.12-.07-5.12-1.87-5.28,3.34s5.11,4.28,5.12,4.13S75.73,238.8,75.73,238.8Z" style="fill:#ffbe9d"></path><path d="M74,244.25s-.09.07-.25.13a.92.92,0,0,1-.68,0,2.27,2.27,0,0,1-1-2,3,3,0,0,1,.3-1.29,1,1,0,0,1,.7-.67.45.45,0,0,1,.53.26c.06.15,0,.25,0,.26s.12-.08.08-.3a.63.63,0,0,0-.19-.33.71.71,0,0,0-.5-.15,1.29,1.29,0,0,0-1,.78,3.07,3.07,0,0,0-.36,1.44A2.35,2.35,0,0,0,73,244.62a1,1,0,0,0,.83-.12C74,244.38,74.06,244.26,74,244.25Z" style="fill:#eb996e"></path><path d="M68.72,230.46c1.06-1.85,1.29-4,1.86-6.09s1.68-4.19,3.68-4.93l0,0a5.47,5.47,0,0,1,5.51.45,7.11,7.11,0,0,1,5.32-5.6,17.64,17.64,0,0,1,9.41.63c2,.77,3.87,2.36,6.2,4.7a25.65,25.65,0,0,1,2.69,3.19l2.38,7.06-1.93,3.73a7.6,7.6,0,0,1-.37.76h0l-1.68,7.85c-.14-2.14-.07-9.57-.2-11.7a11.88,11.88,0,0,1-8.53-3.82c-1.19-1.28-2.12-2.89-3.69-3.64-2-1-4.41-.22-6.52.54l.09-.08a9.53,9.53,0,0,0-2.92,2.15,29.63,29.63,0,0,1-1.13,12.55c-.2.6-.72,1.86-1.32,2.09-1.16.47-1.49-.72-2.2-1.34a3.09,3.09,0,0,0-2.13-.5,48.36,48.36,0,0,1-1.49-5.38,4.73,4.73,0,0,1-2.18.17l.65-1.61a2.4,2.4,0,0,1-.93.43.85.85,0,0,1-.89-.38C68.23,231.31,68.5,230.84,68.72,230.46Z" style="fill:#263238"></path><path d="M82.21,220.75a8.45,8.45,0,0,0-.75.71A5.48,5.48,0,0,0,80.32,224a9.63,9.63,0,0,0-.17,1.93c0,.7.07,1.45.13,2.23a20.13,20.13,0,0,1,.09,2.49,8.64,8.64,0,0,1-.16,1.32,2.68,2.68,0,0,1-.52,1.28,1.15,1.15,0,0,1-1.06.37,1.71,1.71,0,0,1-1-.54,3.87,3.87,0,0,1-.76-1.92l.16,0a6.08,6.08,0,0,1-.9,1.6,2.22,2.22,0,0,1-1.47.82,1.38,1.38,0,0,1-.78-.13,1.27,1.27,0,0,1-.54-.51,1.36,1.36,0,0,1-.17-.67,1,1,0,0,1,.24-.6l.08.07a4.55,4.55,0,0,1-2.12,1.45l-.18,0,.17-.07c.11,0,.28-.12.49-.23a5.11,5.11,0,0,0,1.56-1.25l.08.07a1,1,0,0,0,0,1.12,1.09,1.09,0,0,0,.49.46,1.3,1.3,0,0,0,.71.11,2.12,2.12,0,0,0,1.36-.78,6.24,6.24,0,0,0,.87-1.57l.11-.24,0,.26a3.83,3.83,0,0,0,.72,1.84,1.5,1.5,0,0,0,.86.47,1,1,0,0,0,.91-.31,2.65,2.65,0,0,0,.48-1.2,8.12,8.12,0,0,0,.16-1.29,19.77,19.77,0,0,0-.08-2.46c-.06-.79-.12-1.54-.11-2.25A9,9,0,0,1,80.2,224a5.4,5.4,0,0,1,1.21-2.56A3.25,3.25,0,0,1,82.21,220.75Z" style="fill:#455a64"></path><path d="M105.77,227.86l-.07.06-.18.14-.32.21a3.87,3.87,0,0,1-.46.24,6.72,6.72,0,0,1-3.24.63,8.65,8.65,0,0,1-4.6-1.64,14.67,14.67,0,0,1-4-4.49c-.57-.91-1-1.85-1.53-2.71A10.13,10.13,0,0,0,89.66,218a5.07,5.07,0,0,0-2.2-1.3,3.53,3.53,0,0,0-1.15-.12,3.91,3.91,0,0,0-1,.21,4.44,4.44,0,0,0-2.42,2.09,6.19,6.19,0,0,0-.38,1.14.42.42,0,0,1,0-.07l0-.24a4.13,4.13,0,0,1,.28-.86,4.35,4.35,0,0,1,.84-1.16,4.55,4.55,0,0,1,1.59-1,4.68,4.68,0,0,1,1.09-.23,3.79,3.79,0,0,1,1.2.11,5.39,5.39,0,0,1,2.28,1.33,10.35,10.35,0,0,1,1.76,2.32c.51.87,1,1.8,1.53,2.71A14.84,14.84,0,0,0,97,227.36a8.54,8.54,0,0,0,4.51,1.65,6.82,6.82,0,0,0,3.2-.56A9.88,9.88,0,0,0,105.77,227.86Z" style="fill:#455a64"></path><path d="M100.35,236c-.15.16-1-.54-2.31-.55s-2.21.61-2.34.45.08-.36.49-.65a3.15,3.15,0,0,1,1.89-.56,3.1,3.1,0,0,1,1.83.64C100.29,235.67,100.42,236,100.35,236Z" style="fill:#263238"></path><path d="M99.2,239.22a1,1,0,0,1-1,1,1,1,0,0,1-1-1,1,1,0,0,1,1.06-1A1,1,0,0,1,99.2,239.22Z" style="fill:#263238"></path><path d="M102.78,222a3.28,3.28,0,0,0,2.7,1.52,7.51,7.51,0,0,0,1.14-.33c.37.22.28,1.5,0,1.85a6.18,6.18,0,0,1-.8.82c1.25.67,2.39.34,3.72-.14a6.52,6.52,0,0,1-3.88,5.22,2.29,2.29,0,0,1-2.1,0,2.64,2.64,0,0,1-.91-1.63,28.4,28.4,0,0,1-.93-7Z" style="fill:#263238"></path><path d="M92.05,247.74c0,.07-.22.23-.7.3a2.84,2.84,0,0,1-3-1.77c-.17-.44-.14-.74-.08-.76s.44,1.07,1.54,1.72A5.91,5.91,0,0,0,92.05,247.74Z" style="fill:#263238"></path><polygon points="131.64 321.85 99.39 322.57 98.81 311.81 137.66 314.98 131.64 321.85" style="fill:#ffbe9d"></polygon><path d="M156.05,287.86s.36.79.36.79l-13,24.81-12.56,6.09-26.5-1.17v-1.62l11.94-6.14,19.29.48,10.36-20.53a1.89,1.89,0,0,1,1.33-1Z" style="fill:#455a64"></path><path d="M130.81,319.55a6.86,6.86,0,0,0,.8-1.22c.46-.77,1.07-1.85,1.73-3.05s1.24-2.28,1.65-3.08a6.28,6.28,0,0,0,.6-1.33,6.86,6.86,0,0,0-.8,1.22c-.45.77-1.07,1.85-1.73,3.05s-1.24,2.29-1.65,3.09A6.36,6.36,0,0,0,130.81,319.55Z" style="fill:#263238"></path><polygon points="128.01 316.9 115.17 316.48 124.86 311.42 135.24 311.66 128.01 316.9" style="fill:#263238"></polygon><path d="M104.31,316.7l.28,0,.8,0,2.92.09c2.47.08,5.89.23,9.65.4s7.19.28,9.66.3c1.24,0,2.24,0,2.93,0l.8,0,.28,0-.28,0-.8,0-2.92-.09c-2.47-.08-5.88-.23-9.65-.4s-7.19-.28-9.66-.3c-1.24,0-2.24,0-2.93,0l-.8,0C104.41,316.67,104.31,316.68,104.31,316.7Z" style="fill:#263238"></path><path d="M143.32,309.05c-.35-.41-1.84-1.3-3,2.44,0,0-.53-.54-1.6.83a30.51,30.51,0,0,0-2.53,4.63l-3,1.45-2.39,1.15s.65,2.4.83,2.3,3.44-.28,3.44-.28l.89-.42s2.19,0,2.31-.59,3.74-3.09,3.74-3.62V313.5S143.68,309.47,143.32,309.05Z" style="fill:#ffbe9d"></path><path d="M140.06,311.42s.07,0,.16.05a.35.35,0,0,1,.2.34v0c-.14.44-.3,1.11-.48,1.94s-.38,1.81-.68,2.82a5.23,5.23,0,0,1-1,1.81l-1.08,1.4a7.38,7.38,0,0,0-.93,1.34,10,10,0,0,0,1.1-1.2l1.14-1.36a8.56,8.56,0,0,0,.64-.85,4.16,4.16,0,0,0,.47-1.05,26.11,26.11,0,0,0,.65-2.86q.21-1.11.36-1.95v0h0a.42.42,0,0,0-.32-.41C140.12,311.38,140.06,311.41,140.06,311.42Z" style="fill:#eb996e"></path><path d="M140.59,318.4a10.55,10.55,0,0,0,.87-2.41,10.75,10.75,0,0,0,.56-2.49,20.09,20.09,0,0,0-1.43,4.9Z" style="fill:#eb996e"></path><path d="M85,453.9l-4.44,15.4S94.68,479,94.13,481.92L64,474.37l5.94-24.28Z" style="fill:#455a64"></path><path d="M71.51,465.66a1.27,1.27,0,0,0-1.2,1.19,1.23,1.23,0,0,0,1.17,1.21,1.35,1.35,0,0,0,1.27-1.27,1.26,1.26,0,0,0-1.36-1.12" style="fill:#e0e0e0"></path><g style="opacity:0.6000000000000001"><path d="M64,474.37l.69-2.42,28.68,8.14s1.19.92.8,1.83Z" style="fill:#fff"></path></g><path d="M81,469.27c0,.15-.79,0-1.64.32s-1.38.82-1.5.72.31-.89,1.34-1.22S81.11,469.14,81,469.27Z" style="fill:#263238"></path><path d="M83.88,471.37c0,.15-.7.24-1.36.74s-1,1.12-1.11,1.08,0-.9.8-1.51S83.91,471.23,83.88,471.37Z" style="fill:#263238"></path><path d="M84.73,475.61c-.14,0-.16-.79.42-1.5s1.35-.87,1.38-.73-.5.47-1,1.06S84.88,475.63,84.73,475.61Z" style="fill:#263238"></path><path d="M81.67,465.65c-.1.12-.72-.26-1.57-.41s-1.56-.05-1.61-.2.71-.51,1.71-.32S81.77,465.55,81.67,465.65Z" style="fill:#263238"></path><path d="M74.38,457.52l-.7,16s16,6.09,16.21,9.06l-31.11-.24.07-25Z" style="fill:#455a64"></path><path d="M64.08,472.12a1.26,1.26,0,0,0-.89,1.44,1.21,1.21,0,0,0,1.42.89,1.33,1.33,0,0,0,.93-1.53,1.26,1.26,0,0,0-1.58-.76" style="fill:#e0e0e0"></path><g style="opacity:0.6000000000000001"><path d="M58.78,482.36l.11-2.52L88.67,481s1.38.61,1.22,1.58Z" style="fill:#fff"></path></g><path d="M74.19,473.39c0,.15-.77.21-1.52.69s-1.15,1.12-1.29,1.06.09-.94,1-1.5S74.22,473.25,74.19,473.39Z" style="fill:#263238"></path><path d="M77.44,474.76c0,.15-.63.4-1.15,1s-.67,1.32-.82,1.31-.24-.87.42-1.65S77.44,474.62,77.44,474.76Z" style="fill:#263238"></path><path d="M79.26,478.68c-.14,0-.34-.73.06-1.56s1.11-1.15,1.17-1-.38.57-.7,1.26S79.41,478.67,79.26,478.68Z" style="fill:#263238"></path><path d="M73.94,469.72c-.06.14-.76-.08-1.62,0s-1.53.32-1.6.19.57-.67,1.58-.72S74,469.6,73.94,469.72Z" style="fill:#263238"></path><path d="M74.34,469.54a25.2,25.2,0,0,1,0,3.85l-.12-.19c1.82.69,4.23,1.62,6.8,2.83A36.75,36.75,0,0,1,88,480a7.58,7.58,0,0,1,1.71,1.74c.32.5.28.88.23.86a2.4,2.4,0,0,0-.4-.74,8.77,8.77,0,0,0-1.76-1.56,44.54,44.54,0,0,0-6.89-3.79c-2.55-1.21-4.94-2.18-6.72-2.94l-.13-.06v-.13A26.68,26.68,0,0,1,74.34,469.54Z" style="fill:#263238"></path><path d="M57.1,350.4v11.5l3.09,44.81s-1.92,21.74-3.1,34c-1,10.65.65,29.21.65,29.21h18L82.15,408l4-38.6,6.94-17.57Z" style="fill:#263238"></path><polygon points="105.39 352.44 101.01 414.92 82.82 461.72 81.98 464.54 71.24 461.94 79.23 351.18 105.39 352.44" style="fill:#263238"></polygon><path d="M88.31,369.9s0,.09,0,.26,0,.44,0,.76c0,.69-.07,1.68-.11,2.93-.09,2.55-.31,6.23-.62,10.78-.66,9.08-1.89,21.63-3.8,35.43s-4,26.27-5.49,35.29c-.77,4.49-1.4,8.14-1.83,10.67-.23,1.25-.4,2.22-.52,2.9-.06.32-.11.57-.15.76a.83.83,0,0,1-.06.25,1,1,0,0,1,0-.26c0-.18.06-.44.11-.76.1-.68.25-1.66.44-2.9.4-2.55,1-6.19,1.7-10.69,1.45-9,3.49-21.49,5.37-35.3s3.19-26.33,3.92-35.41c.35-4.54.61-8.22.75-10.76.08-1.26.14-2.24.19-2.93l0-.76A1.11,1.11,0,0,1,88.31,369.9Z" style="fill:#455a64"></path><path d="M87.24,354.26a.93.93,0,1,1-1.85,0,.93.93,0,0,1,1.85,0Z" style="fill:#455a64"></path><path d="M54.39,356.4s2.07-15.75,2.29-17.54,3.71-24.62,3.71-24.62l-3.26-43.38c2.47-2.7,15.41-11.06,15.41-11.06l2-5.53,16.17,12.1L92.86,273l.75-10.85L97.13,266l.28,6.61L99.66,276l2.44,15.13a48.66,48.66,0,0,1,.6,6.38l.51,19.08L107,359.22l-12.73,4a27.76,27.76,0,0,1-14.16.62c-6.76-1.47-16.11-3.46-17.8-3.6C59.6,360,57.08,363,57.08,363,56.58,363,54.12,359.38,54.39,356.4Z" style="fill:#7E57C2"></path><path d="M73,259.38a4.61,4.61,0,0,0,.6.82c.41.5,1,1.22,1.79,2.08,1.54,1.74,3.81,4,6.26,6.55,1.21,1.27,2.34,2.49,3.33,3.63l.11.14.13-.13c1.65-1.64,2.84-3.22,3.76-4.26L90.09,267a2.54,2.54,0,0,0,.37-.44s-.17.11-.45.37-.67.65-1.14,1.16c-1,1-2.2,2.55-3.84,4.15l.24,0c-1-1.17-2.11-2.4-3.32-3.67-2.46-2.55-4.74-4.79-6.33-6.47-.8-.84-1.44-1.53-1.88-2A5.48,5.48,0,0,0,73,259.38Z" style="fill:#263238"></path><path d="M98.3,338.28s0-.06,0-.17,0-.3,0-.5c0-.47-.06-1.1-.11-1.91-.11-1.68-.26-4.07-.46-7-.41-5.92-1-14.09-1.72-23.1s-1.42-17.19-2-23.09c-.29-2.95-.56-5.33-.76-7-.11-.8-.19-1.43-.26-1.89,0-.2,0-.36-.07-.49s0-.17,0-.17,0,.06,0,.17l0,.5c0,.46.11,1.1.2,1.9.15,1.68.37,4.06.64,7,.52,5.9,1.19,14.06,1.9,23.08s1.36,17.16,1.83,23.1c.24,2.93.44,5.31.57,7,.08.81.13,1.44.18,1.9,0,.2,0,.37,0,.5S98.29,338.28,98.3,338.28Z" style="fill:#263238"></path><g style="opacity:0.30000000000000004"><path d="M103.45,320.67c-1.7.84-3.63,1.14-5.3,2a19,19,0,0,0-3.22,2.45c-7.09,6.11-16,10.49-25.37,10.65-3.21.06-6.65-.47-9-2.62-1.31-1.18-2.25-3-1.74-4.71.62-2.06,3-3,5-3.62l19.18-6a86.71,86.71,0,0,1,12.27-3.18,43.06,43.06,0,0,1,8.49-.51"></path></g><path d="M82.18,347.41c0,.09,4.68-2.41,10.33-5.57s10.21-5.81,10.16-5.9-4.67,2.41-10.33,5.58S82.13,347.33,82.18,347.41Z" style="fill:#263238"></path><path d="M96.84,362.42a5.23,5.23,0,0,0,0-.91c0-.65-.08-1.47-.13-2.45-.09-2.07-.11-4.93-.07-8.1s0-6,0-8.11q0-1.49,0-2.46a5.79,5.79,0,0,0-.06-.91,3.57,3.57,0,0,0-.08.91c0,.65-.06,1.47-.09,2.45-.06,2.08-.11,5-.15,8.12s0,6,.18,8.11c.07,1,.17,1.88.24,2.46A3.7,3.7,0,0,0,96.84,362.42Z" style="fill:#263238"></path><g style="opacity:0.30000000000000004"><path d="M73.08,311.81c-1.62-6.21-1.46-13.33-1.29-19.7-1.14,4.37-2.42,11.06-3.36,15.66l1.81,4.41Z"></path></g><g style="opacity:0.30000000000000004"><path d="M92.86,273c0-.12.59.57,0,0a20.79,20.79,0,0,1-2.32-3.26,51.4,51.4,0,0,0-4.87,5.14c-2.23-2.33-4.47-4.67-6.49-7.19a54.94,54.94,0,0,1-4.41-6.39l10.37,11.07,5.59-6Z"></path></g><path d="M96.74,308l-.48,8.57s-12.71,5.94-21,8.08-17.89,1-17.89,1l3.28-13.08Z" style="fill:#ffbe9d"></path><path d="M121.32,309.8a1.83,1.83,0,0,0-.93-1.76c-1.1-.68-3.42-2.19-3.42-2.19l-7-.63L96.74,308l-.48,8.57s6.74.37,8.3.32a37.94,37.94,0,0,0,5.92-1.45s7.3.92,7.65.52.81-.87.35-1.16-6.09-1.74-6.09-1.74l3.77-.29s5.5,1.16,5.91,1,.93-.87.58-1.4l-.35-.52a1.17,1.17,0,0,0-.58-1.45l-.52-.17Z" style="fill:#ffbe9d"></path><path d="M111.32,309.69A4.39,4.39,0,0,0,113,310a17,17,0,0,1,4,.35,22.22,22.22,0,0,1,2.07.87,14.89,14.89,0,0,0,1.75.64,5.8,5.8,0,0,0,1.67.34,16,16,0,0,0-1.6-.56c-.49-.18-1.07-.4-1.7-.69a15.22,15.22,0,0,0-2.09-.91,8.18,8.18,0,0,0-2.28-.3c-.7,0-1.33,0-1.85,0C112,309.75,111.33,309.64,111.32,309.69Z" style="fill:#eb996e"></path><path d="M111.93,307.72a3.61,3.61,0,0,0,1.51.19,8.16,8.16,0,0,1,3.53.46c1.31.55,2.49,1.08,3.36,1.43a6.2,6.2,0,0,0,1.44.5,8,8,0,0,0-1.34-.72c-.85-.4-2-1-3.34-1.51a5.5,5.5,0,0,0-2-.45c-.63,0-1.19,0-1.66.06C112.51,307.75,111.94,307.67,111.93,307.72Z" style="fill:#eb996e"></path><path d="M57.13,270.86s-4.4,7.55-5,10.29-1.92,31.65-1.37,32.19a15.28,15.28,0,0,0,1.51,1.24s-3.16.68-2.2,2.33A29,29,0,0,0,52,319.78s1.75,7.28,2.33,7.41,13.84.6,13.84.6a50.43,50.43,0,0,0,2.54-7.3c.75-3,3.2-10.18,3.2-10.18l-4.4-1.81,3-21.85S73.79,274.84,69,271.8,58.92,267.79,57.13,270.86Z" style="fill:#7E57C2"></path><path d="M96.26,316.61a3.21,3.21,0,0,0,.81.1l2.2.13,3.27.16,1.93.08a4.81,4.81,0,0,0,1-.17l1-.25c1.42-.35,2.76-.71,4-1h-.06l4.44.37,1.27.08a1.35,1.35,0,0,0,.46,0,1.38,1.38,0,0,0-.45-.09l-1.26-.17c-1.08-.13-2.62-.3-4.43-.49h0l-4,1-1,.25a5.21,5.21,0,0,1-1,.17l-1.93-.06-3.26-.09-2.21,0A4.31,4.31,0,0,0,96.26,316.61Z" style="fill:#eb996e"></path><path d="M68.94,326.69a5.39,5.39,0,0,1,.26-1.23c.24-.89.54-2,.9-3.31.78-2.79,1.9-6.64,3.16-10.88l.29-1,.15.31-4.1-1.9.28-.05c-2.09,2.23-3.9,4.12-5.19,5.45l-1.53,1.53a2.87,2.87,0,0,1-.58.51,3.1,3.1,0,0,1,.47-.62l1.42-1.63c1.23-1.38,3-3.32,5.06-5.57l.11-.13.17.07,4.1,1.87.21.09-.07.22c-.09.33-.19.66-.29,1-1.26,4.24-2.44,8.07-3.31,10.83-.42,1.3-.77,2.39-1.06,3.27A6.55,6.55,0,0,1,68.94,326.69Z" style="fill:#263238"></path><path d="M69.65,308a20.68,20.68,0,0,1,.32-3.45c.27-2.13.69-5.07,1.17-8.31s1-6.16,1.33-8.28a23.27,23.27,0,0,1,.7-3.4,21.55,21.55,0,0,1-.33,3.46c-.28,2.13-.69,5.06-1.18,8.3s-1,6.17-1.33,8.28c-.18,1.06-.33,1.91-.45,2.5A3.42,3.42,0,0,1,69.65,308Z" style="fill:#263238"></path><path d="M59,269.75a2.24,2.24,0,0,1,.76-.35A9.6,9.6,0,0,1,62,269a10.27,10.27,0,0,1,10.89,8.68A9.4,9.4,0,0,1,73,280a2.19,2.19,0,0,1-.17.82,21.74,21.74,0,0,0-.29-3A10.35,10.35,0,0,0,62,269.35,23.22,23.22,0,0,0,59,269.75Z" style="fill:#263238"></path><path d="M96.8,272.31A45.13,45.13,0,0,1,94.92,266h.51l-.09.35A34.06,34.06,0,0,1,93.82,271a7.13,7.13,0,0,1-.91,1.85c-.14-.06,1-3,1.92-6.7l.09-.35.25-1,.25,1A42.32,42.32,0,0,1,96.8,272.31Z" style="fill:#263238"></path></g></svg>